<svg role="img" viewBox="0 0 24 24" xmlns="http://www.w3.org/2000/svg" fill="#44A833">
  <path d="M8.768 19.226c.427-.238.768-.644.896-1.196.084-.362.056-.746-.084-1.068-.224-.518-.672-.896-1.224-1.028-.112-.028-.238-.056-.35-.056-.336-.014-.658.056-.952.196l-.364.182c-.154.084-.294.182-.42.294-.42.364-.714.854-.812 1.4-.042.224-.028.434 0 .658.084.532.308 1.008.686 1.372.714.672 1.834.812 2.744.35l.882-.434c1.792-.896 3.808-1.4 5.838-1.484 1.694-.07 3.36.154 4.956.644.406.126.826.266 1.246.392.462.112.938.224 1.456.336.798.168 1.596.154 2.408-.098.672-.182 1.26-.518 1.764-.966.63-.574 1.064-1.302 1.232-2.114.042-.196.056-.406.07-.602v-.014c0-.042.014-.084.014-.112v-.322c-.014-.07-.014-.154-.028-.238-.126-.756-.49-1.47-1.022-2.03-.644-.686-1.498-1.12-2.422-1.274a5.7 5.7 0 0 0-1.89.014c-.434.07-.854.196-1.246.35l-.448.182c-.21.098-.434.196-.658.266l-.238.07c-.378.084-.77.112-1.176.112-.224 0-.434 0-.658-.028-.224-.028-.448-.07-.672-.126-.672-.14-1.344-.364-1.974-.63-.476-.21-.952-.448-1.414-.7-.658-.35-1.274-.742-1.862-1.176-.406-.308-.798-.63-1.162-.966-.238-.21-.462-.448-.658-.672-.098-.126-.182-.238-.266-.35a6.313 6.313 0 0 1-.672-1.288 5.158 5.158 0 0 1-.266-.91 5.11 5.11 0 0 1-.084-.812c-.014-.322.014-.63.056-.952.07-.462.21-.91.392-1.33.224-.49.504-.938.854-1.344.294-.35.63-.672.994-.924C11.904.63 12.582.28 13.344.07c.518-.154 1.078-.196 1.638-.168.434.014.868.084 1.288.196.448.126.868.294 1.274.49 1.008.518 1.876 1.232 2.576 2.072.742.91 1.26 1.946 1.596 3.066.322 1.05.49 2.142.504 3.248v.434a22.26 22.26 0 0 1-.364 4.172l-.07.406-.014.056-.014.098c.028-.042.056-.084.098-.126.112-.126.238-.238.364-.322.308-.21.658-.322 1.022-.35.308-.028.63.014.924.126.406.154.742.42.966.784.154.238.238.518.252.798.028.476-.154.924-.476 1.246-.238.238-.532.392-.868.434-.322.042-.658-.014-.952-.14-.308-.112-.574-.308-.784-.56-.168-.21-.28-.476-.308-.742-.014-.182.014-.378.084-.56l.07-.182.014-.028v.112l.028-.42c.084-1.162.21-2.31.252-3.486.014-.602.014-1.204-.014-1.806-.014-.672-.084-1.344-.21-1.988-.112-.644-.266-1.274-.504-1.904-.21-.574-.476-1.12-.798-1.652a7.495 7.495 0 0 0-2.758-2.702 6.857 6.857 0 0 0-3.192-.896 6.56 6.56 0 0 0-2.394.406c-.7.266-1.344.658-1.89 1.162-.714.658-1.232 1.456-1.54 2.352-.168.49-.266 1.008-.322 1.54-.042.392-.042.798-.014 1.19.07.91.294 1.792.686 2.604.294.63.7 1.204 1.162 1.736.616.686 1.33 1.302 2.072 1.848.434.322.882.63 1.344.91.686.42 1.4.784 2.128 1.064.742.294 1.526.518 2.324.672.462.084.938.126 1.414.154z"/>
</svg>
