<svg role="img" viewBox="0 0 24 24" xmlns="http://www.w3.org/2000/svg" fill="#11557c">
  <path d="M12.033 0C9.57 0 7.905 1.005 7.905 3.687V6.33a8.26 8.26 0 0 0-1.878-.858C3.927 4.436 2.023 4.32.938 5.91c-.39.595-.56 1.283-.56 2.2v9.495c0 1.246.298 2.125.956 2.753.637.602 1.606.91 2.87.91 2.694 0 5.36-1.155 7.9-3.424a43.197 43.197 0 0 1 1.725 2.226c.595.853 1.054 1.422 1.478 1.827.668.627 1.433.967 2.338.967 1.058 0 1.796-.297 2.306-.94.498-.63.753-1.579.753-2.795V6.364c0-1.213-.255-2.151-.77-2.77-.512-.625-1.259-.933-2.347-.933-.916 0-1.67.324-2.307.995a10.94 10.94 0 0 0-1.406 1.862c-.213-1.43-.837-2.453-1.767-3.047C13.56.314 12.803 0 12.033 0Zm.033 1.735c1.221 0 1.844.78 1.844 2.31v11.948c-.384.403-.806.82-1.261 1.24a22.628 22.628 0 0 1-2.623 2.096c-1.93 1.283-3.713 1.94-5.295 1.94-.67 0-1.167-.153-1.506-.477-.338-.32-.506-.866-.506-1.642V7.643c0-.65.087-1.059.255-1.312.417-.629 1.56-.598 2.946-.095 1.227.446 2.586 1.268 3.934 2.388V3.687c0-1.196.4-1.952 1.212-1.952zm7.166 1.893c.463 0 .751.126.909.31.157.183.225.627.225 1.426V18.13c0 .803-.068 1.253-.224 1.44-.155.185-.445.314-.91.314-.447 0-.799-.127-1.074-.376a8.315 8.315 0 0 1-1.075-1.345 42.05 42.05 0 0 1-2.21-3.371v-1.97c.464-.739.992-1.543 1.576-2.41.584-.865 1.042-1.473 1.4-1.86.535-.581.984-.88 1.383-.88Z"/>
</svg>
