<svg role="img" viewBox="0 0 24 24" xmlns="http://www.w3.org/2000/svg" fill="#F7931E">
  <path d="M12.371 7.44a5.01 5.01 0 0 0-5.113 4.909 5.01 5.01 0 0 0 5.113 4.909 5.01 5.01 0 0 0 5.113-4.909 5.01 5.01 0 0 0-5.113-4.909zm10.91 4.909c.012-.21.02-.422.02-.634a11.275 11.275 0 0 0-11.301-11.3A11.275 11.275 0 0 0 .7 11.714a11.297 11.297 0 0 0 11.3 11.301c.214 0 .424-.008.635-.02a11.297 11.297 0 0 0 10.645-10.646zM12.371 3.658a8.714 8.714 0 0 1 8.625 7.525 7.547 7.547 0 0 0-3.808-1.854 7.558 7.558 0 0 0-9.635 0 7.547 7.547 0 0 0-3.808 1.854 8.714 8.714 0 0 1 8.626-7.525zm0 16.667a8.714 8.714 0 0 1-8.625-7.525 7.547 7.547 0 0 0 3.808 1.854 7.558 7.558 0 0 0 9.635 0 7.547 7.547 0 0 0 3.808-1.854 8.714 8.714 0 0 1-8.626 7.525z"/>
</svg>
