<svg role="img" viewBox="0 0 24 24" xmlns="http://www.w3.org/2000/svg" fill="#E97627">
  <path d="M11.654 13.122h.692v4.157h2.058v.692h-4.808v-.692h2.058zm-7.483 7.483h.692v2.058h4.157v.692H4.863v-4.808h.692v2.058zm15.112 0h.692v2.058h4.157v.692h-4.849v-4.808h.692v2.058zM11.654 0h.692v4.157h2.058v.692h-4.808v-.692h2.058zM23.308 11.654h.692v.692h-4.808v-.692h2.058V9.596h.692v2.058h1.366zm-15.15 0h.692v.692H4.042v-.692h2.058V9.596h.692v2.058h1.366zM.692 11.654h.692v.692h2.058v2.058h-.692v-2.058H.692v-.692zm11.654 7.483h.692v2.058h2.058v.692h-4.808v-.692h2.058zm7.329-15.149h.692v4.157h2.058v.692h-4.808v-.692h2.058zm-15.112 0h.692v4.157h2.058v.692H2.505v-.692h2.058zm15.112 7.483h.692v.692h-4.808v-.692h2.058V9.596h.692v2.058h2.058zM4.042 9.596h.692v2.058h2.058v.692H2.004v-.692h2.038V9.596z"/>
</svg>
