<?xml version="1.0" encoding="UTF-8"?>
<svg xmlns="http://www.w3.org/2000/svg" xmlns:xlink="http://www.w3.org/1999/xlink" width="32px" height="32px" viewBox="0 0 32 32" version="1.1">
<g id="surface1">
<path style=" stroke:none;fill-rule:nonzero;fill:rgb(0%,0%,0%);fill-opacity:1;" d="M 14.453125 3.734375 C 13.769531 3.777344 13.558594 3.824219 13.492188 3.945312 C 13.445312 4.042969 13.265625 4.121094 12.988281 4.1875 C 12.902344 4.203125 12.800781 4.265625 12.757812 4.324219 C 12.71875 4.378906 12.652344 4.425781 12.609375 4.425781 C 12.566406 4.425781 12.535156 4.449219 12.535156 4.480469 C 12.535156 4.507812 12.484375 4.535156 12.433594 4.535156 C 12.375 4.535156 12.316406 4.554688 12.296875 4.582031 C 12.28125 4.601562 12.175781 4.640625 12.0625 4.65625 C 11.828125 4.699219 11.617188 4.890625 11.492188 5.1875 C 11.445312 5.308594 11.3125 5.515625 11.195312 5.664062 C 10.964844 5.957031 10.921875 6.191406 11.078125 6.363281 C 11.167969 6.457031 11.164062 6.476562 11.046875 6.675781 C 10.949219 6.847656 10.9375 6.902344 10.992188 6.9375 C 11.046875 6.96875 11.046875 6.992188 10.992188 7.0625 C 10.953125 7.109375 10.902344 7.136719 10.878906 7.121094 C 10.820312 7.082031 10.757812 7.253906 10.769531 7.414062 C 10.789062 7.648438 10.949219 8.179688 11.078125 8.4375 C 11.214844 8.726562 11.324219 9.339844 11.253906 9.515625 C 11.230469 9.578125 11.171875 9.664062 11.125 9.703125 C 11.078125 9.738281 11.050781 9.785156 11.066406 9.808594 C 11.078125 9.828125 11.019531 9.953125 10.929688 10.085938 C 10.84375 10.214844 10.773438 10.355469 10.773438 10.410156 C 10.773438 10.457031 10.742188 10.507812 10.710938 10.523438 C 10.65625 10.539062 10.65625 10.558594 10.699219 10.617188 C 10.730469 10.660156 10.773438 10.800781 10.792969 10.933594 C 10.875 11.472656 11.273438 12 11.652344 12.078125 L 11.8125 12.113281 L 11.644531 12.03125 C 11.519531 11.980469 11.476562 11.925781 11.5 11.871094 C 11.542969 11.765625 11.566406 11.765625 11.691406 11.878906 C 11.78125 11.957031 11.792969 11.957031 11.882812 11.878906 C 11.9375 11.824219 12.074219 11.785156 12.191406 11.78125 C 12.347656 11.78125 12.375 11.769531 12.296875 11.738281 C 12.199219 11.703125 12.199219 11.695312 12.304688 11.667969 C 12.382812 11.648438 12.425781 11.667969 12.441406 11.738281 C 12.457031 11.800781 12.433594 11.839844 12.351562 11.855469 C 12.246094 11.878906 12.246094 11.878906 12.363281 11.886719 C 12.449219 11.894531 12.476562 11.914062 12.449219 11.957031 C 12.398438 12.039062 12.558594 11.921875 12.714844 11.765625 C 12.820312 11.664062 12.820312 11.664062 12.703125 11.691406 C 12.640625 11.710938 12.585938 11.703125 12.585938 11.667969 C 12.585938 11.636719 12.652344 11.625 12.734375 11.644531 C 12.847656 11.664062 12.902344 11.648438 12.953125 11.5625 C 12.992188 11.503906 13.035156 11.464844 13.050781 11.484375 C 13.097656 11.535156 12.804688 11.878906 12.582031 12.019531 C 12.464844 12.101562 12.382812 12.179688 12.394531 12.207031 C 12.410156 12.230469 12.355469 12.246094 12.277344 12.234375 C 12.199219 12.222656 12.175781 12.230469 12.230469 12.246094 C 12.277344 12.261719 12.308594 12.296875 12.289062 12.324219 C 12.273438 12.351562 12.296875 12.410156 12.339844 12.457031 C 12.4375 12.550781 12.453125 12.777344 12.375 12.828125 C 12.347656 12.84375 12.320312 12.90625 12.320312 12.964844 C 12.320312 13.09375 12.113281 13.515625 12.070312 13.472656 C 12.054688 13.457031 12.070312 13.40625 12.105469 13.359375 C 12.148438 13.3125 12.148438 13.28125 12.117188 13.28125 C 12.085938 13.28125 12.019531 13.332031 11.980469 13.398438 L 11.894531 13.515625 L 11.886719 13.359375 C 11.886719 13.222656 11.878906 13.214844 11.839844 13.308594 C 11.796875 13.40625 11.792969 13.40625 11.792969 13.296875 C 11.785156 13.125 11.726562 13.007812 11.667969 13.046875 C 11.632812 13.066406 11.621094 12.921875 11.632812 12.628906 L 11.652344 12.179688 L 11.484375 12.101562 L 11.3125 12.015625 L 11.339844 12.179688 C 11.355469 12.273438 11.386719 12.441406 11.414062 12.558594 C 11.464844 12.832031 11.433594 13.632812 11.355469 13.824219 C 11.324219 13.902344 11.253906 13.984375 11.207031 14 C 11.15625 14.015625 10.9375 14.171875 10.71875 14.347656 C 10 14.917969 9.425781 15.285156 8.585938 15.707031 C 7.664062 16.164062 6.847656 16.535156 6.734375 16.535156 C 6.691406 16.535156 6.601562 16.59375 6.539062 16.667969 C 6.410156 16.804688 6.335938 17.109375 6.265625 17.78125 C 6.246094 17.953125 6.132812 18.378906 6.019531 18.730469 C 5.828125 19.300781 5.808594 19.414062 5.824219 19.828125 C 5.839844 20.421875 5.71875 22.222656 5.648438 22.398438 C 5.621094 22.476562 5.601562 22.683594 5.605469 22.851562 C 5.609375 23.1875 5.5 23.996094 5.367188 24.585938 C 5.316406 24.777344 5.257812 25.273438 5.226562 25.691406 C 5.199219 26.113281 5.136719 26.714844 5.089844 27.035156 L 5.003906 27.617188 L 5.265625 27.855469 C 6.246094 28.773438 7.894531 29.871094 9.15625 30.457031 C 11.347656 31.476562 13.558594 31.960938 16 31.960938 C 17.199219 31.96875 17.667969 31.925781 18.828125 31.726562 C 20.6875 31.40625 22.8125 30.613281 24.214844 29.71875 C 25.535156 28.871094 26.277344 28.296875 26.199219 28.199219 C 26.101562 28.074219 25.972656 27.726562 26.042969 27.769531 C 26.078125 27.792969 26.078125 27.769531 26.03125 27.71875 C 25.996094 27.667969 25.921875 27.625 25.871094 27.625 C 25.824219 27.625 25.742188 27.589844 25.691406 27.546875 C 25.632812 27.507812 25.558594 27.488281 25.519531 27.5 C 25.484375 27.515625 25.441406 27.476562 25.425781 27.414062 C 25.40625 27.347656 25.371094 27.3125 25.339844 27.328125 C 25.273438 27.371094 25.0625 27.257812 24.996094 27.15625 C 24.976562 27.125 24.917969 27.09375 24.871094 27.09375 C 24.8125 27.09375 24.800781 27.070312 24.835938 27.03125 C 24.863281 26.992188 24.878906 26.894531 24.875 26.816406 C 24.863281 26.703125 24.886719 26.667969 24.949219 26.667969 C 25.035156 26.660156 25.035156 26.65625 24.949219 26.59375 C 24.875 26.539062 24.871094 26.511719 24.921875 26.457031 C 24.96875 26.40625 24.964844 26.398438 24.894531 26.425781 C 24.835938 26.449219 24.800781 26.523438 24.800781 26.59375 C 24.800781 26.785156 24.691406 26.878906 24.558594 26.804688 C 24.292969 26.660156 24.1875 26.507812 24.339844 26.507812 C 24.382812 26.507812 24.433594 26.492188 24.441406 26.46875 C 24.480469 26.410156 24.175781 26.414062 24.121094 26.476562 C 24.097656 26.5 24.105469 26.507812 24.148438 26.484375 C 24.1875 26.464844 24.214844 26.480469 24.214844 26.527344 C 24.214844 26.574219 24.179688 26.613281 24.136719 26.613281 C 24.097656 26.613281 24.046875 26.644531 24.039062 26.675781 C 24.019531 26.714844 24.003906 26.683594 24.003906 26.609375 C 24 26.5 23.972656 26.476562 23.882812 26.476562 C 23.808594 26.480469 23.753906 26.441406 23.742188 26.378906 C 23.726562 26.296875 23.742188 26.28125 23.835938 26.308594 C 23.910156 26.324219 23.945312 26.308594 23.945312 26.261719 C 23.945312 26.21875 23.914062 26.203125 23.855469 26.222656 C 23.695312 26.277344 23.632812 26.351562 23.664062 26.433594 C 23.679688 26.480469 23.660156 26.507812 23.601562 26.507812 C 23.550781 26.507812 23.523438 26.527344 23.546875 26.554688 C 23.5625 26.582031 23.550781 26.617188 23.519531 26.640625 C 23.488281 26.65625 23.464844 26.617188 23.464844 26.550781 C 23.464844 26.449219 23.457031 26.441406 23.414062 26.507812 C 23.371094 26.566406 23.367188 26.550781 23.390625 26.4375 C 23.417969 26.316406 23.40625 26.292969 23.3125 26.292969 C 23.207031 26.292969 23.199219 26.265625 23.199219 25.71875 C 23.199219 25.328125 23.214844 25.171875 23.253906 25.226562 C 23.296875 25.289062 23.308594 25.289062 23.3125 25.199219 C 23.3125 25.125 23.332031 25.140625 23.375 25.265625 C 23.449219 25.464844 23.546875 25.566406 23.507812 25.40625 C 23.488281 25.316406 23.5 25.300781 23.578125 25.316406 C 23.625 25.332031 23.683594 25.375 23.703125 25.417969 C 23.71875 25.460938 23.765625 25.476562 23.8125 25.460938 C 23.871094 25.433594 23.886719 25.449219 23.863281 25.515625 C 23.824219 25.617188 23.703125 25.625 23.664062 25.53125 C 23.648438 25.484375 23.621094 25.484375 23.578125 25.523438 C 23.523438 25.574219 23.546875 25.59375 23.648438 25.621094 C 23.722656 25.636719 23.785156 25.679688 23.785156 25.707031 C 23.785156 25.738281 23.8125 25.761719 23.84375 25.761719 C 23.871094 25.761719 23.882812 25.738281 23.867188 25.707031 C 23.851562 25.679688 23.851562 25.625 23.871094 25.59375 C 23.914062 25.519531 24.148438 25.78125 24.191406 25.953125 C 24.21875 26.046875 24.257812 26.070312 24.375 26.054688 C 24.515625 26.03125 24.597656 26.105469 24.609375 26.265625 C 24.613281 26.292969 24.667969 26.324219 24.730469 26.324219 C 24.832031 26.332031 24.84375 26.316406 24.792969 26.230469 C 24.761719 26.171875 24.746094 26.113281 24.761719 26.101562 C 24.800781 26.0625 25.199219 26.613281 25.183594 26.675781 C 25.179688 26.703125 25.195312 26.714844 25.226562 26.691406 C 25.257812 26.675781 25.28125 26.714844 25.28125 26.785156 C 25.28125 26.871094 25.296875 26.886719 25.328125 26.835938 C 25.359375 26.777344 25.382812 26.785156 25.40625 26.851562 C 25.429688 26.910156 25.476562 26.933594 25.546875 26.917969 C 25.605469 26.902344 25.652344 26.917969 25.652344 26.945312 C 25.652344 26.976562 25.683594 26.96875 25.734375 26.933594 C 25.828125 26.851562 25.882812 26.890625 26.230469 27.242188 C 26.351562 27.371094 26.480469 27.457031 26.507812 27.441406 C 26.539062 27.425781 26.542969 27.445312 26.527344 27.488281 C 26.507812 27.546875 26.527344 27.574219 26.585938 27.574219 C 26.640625 27.574219 26.660156 27.546875 26.640625 27.503906 C 26.617188 27.472656 26.640625 27.484375 26.683594 27.53125 C 26.777344 27.648438 26.949219 27.652344 27.046875 27.542969 C 27.097656 27.472656 27.097656 27.449219 27.035156 27.40625 C 26.992188 27.382812 26.9375 27.359375 26.910156 27.359375 C 26.820312 27.359375 26.160156 27.019531 26.058594 26.917969 C 25.945312 26.816406 25.945312 26.816406 26.132812 26.90625 C 26.234375 26.960938 26.332031 27.019531 26.347656 27.035156 C 26.394531 27.09375 26.949219 27.308594 27.054688 27.308594 C 27.140625 27.308594 26.890625 27.078125 26.703125 26.976562 C 26.585938 26.921875 26.511719 26.859375 26.527344 26.84375 C 26.542969 26.828125 26.726562 26.902344 26.929688 27.007812 C 27.128906 27.113281 27.324219 27.199219 27.347656 27.199219 C 27.382812 27.199219 27.464844 27.121094 27.542969 27.03125 L 27.675781 26.851562 L 27.492188 26.15625 C 27.316406 25.460938 27.273438 25.355469 26.835938 24.507812 C 26.65625 24.148438 26.585938 23.914062 26.433594 23.148438 C 26.324219 22.632812 26.230469 22.160156 26.214844 22.089844 C 26.1875 21.972656 26.179688 21.972656 25.9375 22.160156 C 25.800781 22.261719 25.664062 22.347656 25.632812 22.347656 C 25.5625 22.339844 25.871094 22.078125 25.941406 22.078125 C 26.003906 22.078125 26.128906 21.910156 26.132812 21.8125 C 26.132812 21.769531 26.097656 21.664062 26.046875 21.574219 C 26 21.472656 25.945312 21.15625 25.914062 20.71875 C 25.855469 19.921875 25.828125 19.75 25.632812 19.183594 C 25.558594 18.960938 25.492188 18.734375 25.492188 18.691406 C 25.492188 18.652344 25.472656 18.613281 25.445312 18.613281 C 25.417969 18.613281 25.386719 18.539062 25.375 18.441406 C 25.355469 18.292969 25.355469 18.289062 25.417969 18.375 C 25.476562 18.453125 25.488281 18.421875 25.464844 18.144531 C 25.457031 17.96875 25.425781 17.777344 25.398438 17.722656 C 25.316406 17.574219 25.066406 16.617188 25.0625 16.449219 C 25.0625 16.363281 25.023438 16.171875 24.980469 16.027344 L 24.910156 15.761719 L 24.929688 16.25 C 24.945312 16.644531 24.933594 16.746094 24.875 16.746094 C 24.832031 16.746094 24.800781 16.777344 24.792969 16.8125 C 24.792969 16.847656 24.773438 16.832031 24.746094 16.773438 C 24.683594 16.625 24.683594 16.574219 24.746094 16.613281 C 24.832031 16.667969 24.8125 16.601562 24.710938 16.507812 C 24.640625 16.4375 24.617188 16.316406 24.617188 15.996094 C 24.613281 15.765625 24.597656 15.574219 24.582031 15.574219 C 24.558594 15.574219 24.527344 15.761719 24.507812 15.988281 C 24.484375 16.21875 24.453125 16.492188 24.425781 16.59375 C 24.390625 16.753906 24.390625 16.746094 24.390625 16.492188 C 24.390625 16.308594 24.367188 16.1875 24.324219 16.160156 C 24.273438 16.128906 24.277344 16.105469 24.347656 16.0625 C 24.4375 16.015625 24.433594 16.011719 24.316406 15.96875 C 24.246094 15.945312 24.117188 15.9375 24.03125 15.941406 C 23.953125 15.953125 23.894531 15.9375 23.910156 15.910156 C 23.925781 15.886719 23.878906 15.863281 23.800781 15.855469 C 23.605469 15.84375 23.039062 15.71875 23.039062 15.679688 C 23.039062 15.664062 22.964844 15.652344 22.871094 15.652344 C 22.71875 15.652344 22.691406 15.632812 22.640625 15.460938 C 22.609375 15.34375 22.558594 15.28125 22.515625 15.296875 C 22.464844 15.3125 22.464844 15.332031 22.515625 15.398438 C 22.554688 15.441406 22.585938 15.507812 22.59375 15.550781 C 22.609375 15.636719 22.40625 15.617188 22.042969 15.492188 C 21.886719 15.441406 21.867188 15.417969 21.953125 15.398438 C 22.039062 15.375 22.039062 15.371094 21.960938 15.367188 C 21.910156 15.367188 21.867188 15.332031 21.867188 15.300781 C 21.867188 15.269531 21.820312 15.257812 21.761719 15.28125 C 21.691406 15.300781 21.644531 15.285156 21.621094 15.238281 C 21.605469 15.1875 21.550781 15.167969 21.492188 15.183594 C 21.417969 15.207031 21.398438 15.179688 21.40625 15.070312 C 21.414062 14.964844 21.433594 14.9375 21.515625 14.964844 C 21.574219 14.988281 21.601562 14.976562 21.578125 14.945312 C 21.5625 14.917969 21.5 14.878906 21.441406 14.863281 C 21.382812 14.847656 21.34375 14.851562 21.355469 14.875 C 21.371094 14.894531 21.359375 14.945312 21.332031 14.980469 C 21.300781 15.035156 21.28125 15.023438 21.253906 14.9375 C 21.230469 14.875 21.1875 14.832031 21.15625 14.84375 C 21.082031 14.863281 20.933594 14.730469 20.980469 14.683594 C 21.019531 14.644531 20.910156 14.507812 20.847656 14.507812 C 20.820312 14.507812 20.800781 14.570312 20.800781 14.644531 C 20.800781 14.742188 20.777344 14.777344 20.726562 14.757812 C 20.6875 14.742188 20.625 14.757812 20.59375 14.789062 C 20.550781 14.832031 20.535156 14.8125 20.535156 14.703125 C 20.535156 14.613281 20.507812 14.558594 20.453125 14.558594 C 20.355469 14.558594 20.347656 14.453125 20.441406 14.453125 C 20.480469 14.449219 20.464844 14.414062 20.40625 14.375 C 20.335938 14.320312 20.316406 14.25 20.332031 14.148438 C 20.339844 14.054688 20.320312 13.960938 20.265625 13.902344 C 20.179688 13.820312 19.652344 13.574219 19.546875 13.566406 C 19.519531 13.566406 19.398438 13.542969 19.28125 13.507812 C 19.164062 13.476562 18.960938 13.433594 18.832031 13.417969 C 18.699219 13.402344 18.570312 13.367188 18.550781 13.34375 C 18.480469 13.273438 18.566406 12.960938 18.667969 12.890625 C 18.734375 12.851562 18.753906 12.804688 18.71875 12.726562 C 18.597656 12.390625 18.558594 12.199219 18.558594 11.898438 C 18.558594 11.683594 18.539062 11.578125 18.507812 11.601562 C 18.46875 11.621094 18.464844 11.792969 18.480469 12.046875 C 18.507812 12.394531 18.496094 12.464844 18.425781 12.464844 C 18.382812 12.464844 18.347656 12.425781 18.347656 12.390625 C 18.347656 12.347656 18.367188 12.324219 18.394531 12.339844 C 18.414062 12.355469 18.425781 12.308594 18.410156 12.238281 C 18.398438 12.164062 18.367188 12.117188 18.347656 12.132812 C 18.277344 12.175781 18.238281 12.550781 18.304688 12.625 C 18.347656 12.675781 18.339844 12.691406 18.277344 12.691406 C 18.222656 12.691406 18.203125 12.730469 18.222656 12.8125 C 18.246094 12.910156 18.238281 12.917969 18.191406 12.851562 C 18.148438 12.789062 18.132812 12.835938 18.128906 13.039062 C 18.128906 13.222656 18.113281 13.273438 18.085938 13.207031 C 18.046875 13.109375 18.042969 13.109375 18.011719 13.195312 C 17.988281 13.246094 17.984375 13.308594 18 13.332031 C 18.015625 13.355469 17.988281 13.390625 17.945312 13.40625 C 17.898438 13.425781 17.851562 13.402344 17.835938 13.367188 C 17.785156 13.246094 17.648438 13.210938 17.664062 13.324219 C 17.675781 13.371094 17.652344 13.40625 17.621094 13.402344 C 17.585938 13.398438 17.566406 13.433594 17.585938 13.488281 C 17.601562 13.542969 17.585938 13.605469 17.546875 13.625 C 17.507812 13.648438 17.492188 13.632812 17.503906 13.574219 C 17.515625 13.519531 17.488281 13.464844 17.457031 13.457031 C 17.417969 13.441406 17.386719 13.457031 17.386719 13.492188 C 17.386719 13.523438 17.359375 13.535156 17.328125 13.519531 C 17.296875 13.5 17.28125 13.519531 17.289062 13.578125 C 17.300781 13.636719 17.28125 13.675781 17.242188 13.664062 C 17.207031 13.660156 17.171875 13.691406 17.171875 13.734375 C 17.171875 13.777344 17.152344 13.8125 17.121094 13.8125 C 17.09375 13.8125 17.066406 13.84375 17.066406 13.886719 C 17.066406 13.925781 17.019531 13.972656 16.953125 13.988281 C 16.890625 14.003906 16.859375 14.042969 16.875 14.070312 C 16.890625 14.101562 16.875 14.132812 16.84375 14.148438 C 16.789062 14.164062 16.792969 14.191406 16.851562 14.265625 C 16.902344 14.324219 16.90625 14.351562 16.871094 14.324219 C 16.828125 14.304688 16.800781 14.316406 16.800781 14.355469 C 16.800781 14.40625 16.785156 14.40625 16.746094 14.347656 C 16.710938 14.289062 16.691406 14.28125 16.691406 14.335938 C 16.691406 14.378906 16.660156 14.398438 16.628906 14.390625 C 16.566406 14.367188 16.46875 14.074219 16.480469 13.929688 C 16.492188 13.726562 16.507812 13.664062 16.542969 13.683594 C 16.597656 13.722656 16.6875 13.367188 16.628906 13.328125 C 16.601562 13.3125 16.597656 13.265625 16.613281 13.214844 C 16.652344 13.121094 16.558594 13.039062 16.355469 12.992188 C 16.273438 12.96875 16.097656 12.847656 15.96875 12.710938 C 15.835938 12.574219 15.722656 12.476562 15.710938 12.484375 C 15.707031 12.496094 15.644531 12.597656 15.574219 12.710938 C 15.449219 12.917969 15.425781 12.921875 15.179688 12.828125 C 15.089844 12.789062 15.089844 12.792969 15.164062 12.945312 C 15.214844 13.046875 15.226562 13.125 15.195312 13.179688 C 15.167969 13.222656 15.148438 13.230469 15.148438 13.207031 C 15.148438 13.171875 15.109375 13.199219 15.066406 13.257812 C 14.992188 13.355469 14.992188 13.355469 14.988281 13.226562 C 14.980469 13.105469 14.976562 13.105469 14.933594 13.199219 C 14.890625 13.296875 14.886719 13.296875 14.886719 13.210938 C 14.878906 13.15625 14.847656 13.105469 14.804688 13.089844 C 14.699219 13.046875 14.777344 12.789062 14.917969 12.71875 C 15.089844 12.632812 15.199219 12.527344 15.195312 12.457031 C 15.195312 12.421875 15.183594 12.425781 15.164062 12.464844 C 15.152344 12.5 15.089844 12.535156 15.03125 12.535156 C 14.9375 12.535156 14.933594 12.523438 14.988281 12.453125 C 15.046875 12.382812 15.039062 12.378906 14.964844 12.40625 C 14.917969 12.421875 14.84375 12.40625 14.792969 12.367188 C 14.675781 12.273438 14.28125 12.289062 14.128906 12.390625 C 14.058594 12.4375 13.980469 12.527344 13.941406 12.59375 C 13.882812 12.703125 13.878906 12.703125 13.675781 12.484375 C 13.457031 12.257812 13.285156 12.207031 13.171875 12.347656 C 13.109375 12.425781 13.011719 12.410156 13.011719 12.320312 C 13.011719 12.292969 13.050781 12.234375 13.097656 12.191406 C 13.15625 12.128906 13.207031 12.121094 13.28125 12.160156 C 13.417969 12.234375 13.535156 12.230469 13.53125 12.144531 C 13.515625 11.984375 13.617188 11.324219 13.667969 11.226562 C 13.703125 11.167969 13.722656 11.089844 13.71875 11.054688 C 13.703125 10.980469 14.019531 10.671875 14.117188 10.667969 C 14.148438 10.667969 14.246094 10.777344 14.324219 10.917969 C 14.414062 11.070312 14.480469 11.140625 14.496094 11.097656 C 14.511719 11.054688 14.484375 10.996094 14.441406 10.964844 C 14.40625 10.933594 14.335938 10.832031 14.296875 10.734375 C 14.257812 10.632812 14.171875 10.542969 14.085938 10.511719 C 13.957031 10.464844 13.957031 10.464844 14.070312 10.457031 C 14.132812 10.453125 14.1875 10.421875 14.1875 10.375 C 14.1875 10.257812 14.28125 10.277344 14.320312 10.398438 C 14.339844 10.476562 14.398438 10.507812 14.507812 10.507812 C 14.625 10.507812 14.683594 10.542969 14.746094 10.667969 C 14.832031 10.835938 14.851562 10.953125 14.773438 10.828125 C 14.746094 10.785156 14.710938 10.769531 14.691406 10.785156 C 14.671875 10.804688 14.691406 10.875 14.742188 10.945312 C 14.800781 11.023438 14.828125 11.039062 14.832031 10.988281 C 14.835938 10.945312 14.859375 10.964844 14.886719 11.039062 C 14.929688 11.167969 14.929688 11.167969 14.917969 11.011719 C 14.90625 10.863281 14.921875 10.851562 15.109375 10.835938 C 15.246094 10.828125 15.308594 10.84375 15.308594 10.894531 C 15.308594 10.949219 15.367188 10.960938 15.5625 10.933594 C 15.898438 10.886719 16.640625 10.613281 16.640625 10.539062 C 16.640625 10.507812 16.746094 10.441406 16.886719 10.40625 C 17.136719 10.332031 17.285156 10.222656 17.273438 10.117188 C 17.273438 10.070312 17.265625 10.070312 17.246094 10.113281 C 17.214844 10.1875 17.023438 10.148438 16.90625 10.046875 C 16.863281 10.011719 16.761719 9.960938 16.683594 9.945312 C 16.570312 9.921875 16.539062 9.882812 16.554688 9.796875 C 16.558594 9.734375 16.601562 9.675781 16.640625 9.664062 C 16.675781 9.648438 16.691406 9.664062 16.671875 9.703125 C 16.644531 9.738281 16.667969 9.75 16.714844 9.726562 C 16.84375 9.679688 16.816406 9.609375 16.628906 9.507812 C 16.484375 9.429688 16.320312 9.414062 15.734375 9.414062 C 15.078125 9.414062 14.992188 9.425781 14.761719 9.542969 C 14.617188 9.617188 14.507812 9.691406 14.507812 9.71875 C 14.507812 9.738281 14.464844 9.761719 14.414062 9.761719 C 14.28125 9.761719 14.585938 9.515625 14.800781 9.445312 C 14.933594 9.402344 14.886719 9.390625 14.558594 9.398438 C 14.339844 9.398438 14.128906 9.425781 14.089844 9.457031 C 14.054688 9.484375 13.929688 9.492188 13.800781 9.472656 C 13.679688 9.449219 13.417969 9.449219 13.222656 9.472656 L 12.859375 9.503906 L 13.136719 9.648438 C 13.367188 9.765625 13.417969 9.8125 13.429688 9.945312 L 13.445312 10.105469 L 13.3125 9.914062 C 13.214844 9.769531 13.097656 9.695312 12.851562 9.605469 C 12.660156 9.535156 12.46875 9.5 12.394531 9.515625 C 12.324219 9.535156 12.265625 9.523438 12.265625 9.503906 C 12.265625 9.476562 12.558594 9.441406 12.917969 9.417969 C 13.332031 9.398438 13.585938 9.359375 13.609375 9.316406 C 13.636719 9.273438 13.605469 9.242188 13.53125 9.222656 C 13.449219 9.207031 13.417969 9.164062 13.429688 9.089844 C 13.433594 9.03125 13.390625 8.933594 13.332031 8.878906 C 13.273438 8.828125 13.226562 8.804688 13.226562 8.832031 C 13.226562 8.859375 13.199219 8.84375 13.171875 8.800781 C 13.128906 8.734375 13.121094 8.742188 13.121094 8.835938 C 13.121094 8.90625 13.097656 8.960938 13.066406 8.960938 C 13.039062 8.960938 13.011719 8.933594 13.011719 8.90625 C 13.011719 8.875 12.976562 8.851562 12.933594 8.851562 C 12.890625 8.851562 12.851562 8.804688 12.851562 8.746094 C 12.851562 8.6875 12.835938 8.644531 12.816406 8.644531 C 12.710938 8.660156 12.675781 8.632812 12.746094 8.585938 C 12.816406 8.542969 12.8125 8.535156 12.726562 8.535156 C 12.652344 8.535156 12.632812 8.507812 12.660156 8.40625 C 12.675781 8.332031 12.671875 8.257812 12.640625 8.238281 C 12.542969 8.179688 12.585938 7.96875 12.71875 7.839844 C 12.8125 7.753906 12.832031 7.703125 12.792969 7.675781 C 12.757812 7.652344 12.777344 7.625 12.851562 7.601562 C 12.945312 7.566406 12.953125 7.550781 12.902344 7.515625 C 12.84375 7.484375 12.84375 7.457031 12.890625 7.40625 C 12.929688 7.371094 12.9375 7.28125 12.921875 7.195312 C 12.902344 7.078125 12.910156 7.039062 12.980469 7.039062 C 13.03125 7.039062 13.066406 7.007812 13.066406 6.964844 C 13.066406 6.851562 13.324219 6.710938 13.535156 6.703125 C 13.636719 6.699219 13.695312 6.6875 13.660156 6.675781 C 13.550781 6.640625 13.59375 6.535156 13.75 6.46875 C 13.828125 6.433594 13.984375 6.320312 14.097656 6.21875 C 14.453125 5.886719 14.703125 5.808594 15.355469 5.835938 C 15.664062 5.84375 15.96875 5.871094 16.027344 5.894531 C 16.113281 5.925781 16.117188 5.921875 16.054688 5.871094 C 15.988281 5.824219 15.996094 5.8125 16.101562 5.8125 C 16.191406 5.8125 16.21875 5.835938 16.191406 5.898438 C 16.164062 5.96875 16.191406 5.980469 16.375 5.945312 C 16.550781 5.914062 16.652344 5.941406 16.996094 6.105469 C 17.226562 6.214844 17.460938 6.316406 17.515625 6.324219 C 17.574219 6.335938 17.636719 6.375 17.660156 6.40625 C 17.679688 6.441406 17.742188 6.453125 17.800781 6.441406 C 17.886719 6.421875 17.902344 6.433594 17.882812 6.496094 C 17.855469 6.558594 17.878906 6.570312 17.960938 6.550781 C 18.039062 6.527344 18.070312 6.539062 18.042969 6.574219 C 18.019531 6.609375 18.054688 6.617188 18.121094 6.601562 C 18.203125 6.582031 18.238281 6.59375 18.238281 6.644531 C 18.238281 6.6875 18.28125 6.71875 18.335938 6.726562 C 18.390625 6.726562 18.398438 6.742188 18.363281 6.757812 C 18.238281 6.804688 18.28125 6.988281 18.410156 6.988281 C 18.523438 6.988281 18.523438 6.988281 18.421875 6.90625 C 18.324219 6.832031 18.324219 6.832031 18.46875 6.828125 C 18.582031 6.828125 18.613281 6.851562 18.617188 6.945312 C 18.617188 7.0625 18.625 7.0625 18.667969 6.960938 C 18.710938 6.871094 18.714844 6.875 18.726562 7.011719 C 18.746094 7.339844 18.726562 7.585938 18.683594 7.476562 C 18.671875 7.445312 18.640625 7.425781 18.613281 7.441406 C 18.59375 7.457031 18.554688 7.375 18.535156 7.269531 C 18.511719 7.136719 18.484375 7.097656 18.453125 7.148438 C 18.40625 7.222656 18.425781 7.675781 18.484375 7.886719 C 18.515625 7.988281 18.507812 8.011719 18.441406 7.984375 C 18.378906 7.960938 18.363281 7.988281 18.367188 8.121094 C 18.375 8.246094 18.351562 8.289062 18.296875 8.277344 C 18.238281 8.265625 18.238281 8.289062 18.316406 8.382812 C 18.476562 8.609375 18.5 8.742188 18.511719 9.359375 C 18.515625 9.761719 18.539062 10 18.582031 10.042969 C 18.632812 10.089844 18.554688 10.105469 18.222656 10.113281 C 17.996094 10.117188 17.777344 10.148438 17.742188 10.179688 C 17.710938 10.214844 17.59375 10.238281 17.484375 10.238281 C 17.371094 10.238281 17.28125 10.261719 17.28125 10.292969 C 17.28125 10.375 17.621094 10.355469 17.984375 10.261719 C 18.160156 10.21875 18.316406 10.191406 18.332031 10.203125 C 18.339844 10.21875 18.265625 10.28125 18.160156 10.347656 C 18.054688 10.414062 17.8125 10.597656 17.636719 10.753906 C 17.359375 10.988281 17.300781 11.019531 17.269531 10.945312 C 17.238281 10.863281 17.230469 10.871094 17.226562 10.960938 C 17.214844 11.019531 17.214844 11.082031 17.222656 11.105469 C 17.222656 11.128906 17.199219 11.148438 17.171875 11.148438 C 17.140625 11.148438 17.121094 11.171875 17.121094 11.207031 C 17.121094 11.238281 17.242188 11.15625 17.390625 11.03125 C 17.851562 10.640625 18.097656 10.453125 18.304688 10.347656 C 18.5 10.238281 18.5 10.238281 18.574219 10.347656 C 18.644531 10.449219 18.652344 10.449219 18.800781 10.292969 C 18.921875 10.164062 18.933594 10.132812 18.863281 10.132812 C 18.816406 10.132812 18.773438 10.113281 18.773438 10.085938 C 18.773438 10.054688 18.851562 10.046875 18.949219 10.0625 C 19.09375 10.085938 19.179688 10.054688 19.382812 9.914062 C 19.636719 9.734375 19.636719 9.734375 19.605469 9.492188 C 19.585938 9.332031 19.605469 9.148438 19.660156 8.960938 C 19.707031 8.800781 19.742188 8.597656 19.742188 8.507812 C 19.738281 8.367188 19.648438 8.117188 19.566406 8.054688 C 19.550781 8.039062 19.472656 7.929688 19.390625 7.8125 C 19.308594 7.695312 19.257812 7.648438 19.28125 7.707031 C 19.316406 7.828125 19.324219 7.839844 19.3125 7.929688 C 19.300781 8.046875 19.039062 7.886719 19.035156 7.765625 C 19.035156 7.703125 19.019531 7.679688 19.007812 7.710938 C 18.992188 7.75 18.933594 7.765625 18.878906 7.75 C 18.800781 7.726562 18.773438 7.675781 18.773438 7.542969 C 18.773438 7.328125 18.886719 7.296875 18.980469 7.476562 C 19.023438 7.558594 19.035156 7.5625 19.011719 7.5 C 18.988281 7.402344 18.992188 7.402344 19.125 7.492188 C 19.257812 7.578125 19.265625 7.578125 19.226562 7.464844 C 19.195312 7.359375 19.199219 7.355469 19.316406 7.417969 C 19.5 7.519531 19.585938 7.523438 19.550781 7.433594 C 19.535156 7.386719 19.542969 7.371094 19.578125 7.386719 C 19.609375 7.40625 19.621094 7.449219 19.609375 7.488281 C 19.59375 7.523438 19.644531 7.609375 19.71875 7.679688 C 19.796875 7.753906 19.839844 7.84375 19.824219 7.902344 C 19.808594 7.957031 19.820312 7.988281 19.84375 7.96875 C 19.871094 7.953125 19.894531 7.96875 19.894531 7.996094 C 19.894531 8.027344 19.910156 8.054688 19.9375 8.054688 C 19.957031 8.054688 19.972656 7.996094 19.972656 7.925781 C 19.972656 7.855469 19.953125 7.808594 19.925781 7.828125 C 19.898438 7.84375 19.894531 7.820312 19.910156 7.765625 C 19.929688 7.710938 19.925781 7.683594 19.894531 7.707031 C 19.820312 7.753906 19.824219 7.664062 19.902344 7.585938 C 19.945312 7.542969 19.945312 7.503906 19.894531 7.441406 C 19.84375 7.386719 19.824219 7.238281 19.835938 7.039062 C 19.839844 6.84375 19.820312 6.671875 19.765625 6.570312 C 19.722656 6.484375 19.660156 6.214844 19.632812 5.972656 C 19.5625 5.457031 19.433594 5.222656 19.136719 5.0625 C 18.929688 4.953125 18.730469 4.917969 18.878906 5.011719 C 18.945312 5.054688 18.933594 5.066406 18.828125 5.070312 C 18.753906 5.078125 18.652344 5.078125 18.597656 5.078125 C 18.542969 5.070312 18.515625 5.089844 18.535156 5.121094 C 18.554688 5.152344 18.527344 5.15625 18.46875 5.136719 C 18.40625 5.113281 18.421875 5.15625 18.535156 5.273438 C 18.6875 5.441406 18.675781 5.441406 18.363281 5.222656 C 18.175781 5.097656 18.015625 5.007812 17.996094 5.023438 C 17.980469 5.046875 18.054688 5.109375 18.171875 5.164062 C 18.28125 5.222656 18.398438 5.316406 18.433594 5.371094 C 18.484375 5.457031 18.441406 5.445312 18.191406 5.316406 C 18.027344 5.238281 17.851562 5.179688 17.792969 5.195312 C 17.738281 5.210938 17.621094 5.183594 17.535156 5.140625 C 17.449219 5.097656 17.355469 5.078125 17.316406 5.097656 C 17.28125 5.121094 17.269531 5.121094 17.289062 5.097656 C 17.3125 5.070312 17.214844 4.996094 17.078125 4.921875 C 16.9375 4.851562 16.777344 4.742188 16.714844 4.671875 C 16.65625 4.601562 16.570312 4.535156 16.527344 4.515625 C 16.476562 4.496094 16.476562 4.484375 16.523438 4.484375 C 16.585938 4.480469 16.804688 4.585938 17.164062 4.800781 C 17.359375 4.921875 17.390625 4.890625 17.214844 4.746094 C 17.046875 4.613281 17.140625 4.542969 17.339844 4.660156 C 17.675781 4.859375 17.785156 4.902344 17.835938 4.851562 C 17.863281 4.828125 17.921875 4.832031 17.980469 4.871094 C 18.058594 4.917969 18.097656 4.910156 18.171875 4.828125 C 18.234375 4.761719 18.234375 4.746094 18.1875 4.789062 C 18.117188 4.835938 18.070312 4.828125 17.953125 4.753906 C 17.851562 4.683594 17.824219 4.644531 17.878906 4.625 C 17.914062 4.609375 17.898438 4.59375 17.828125 4.59375 C 17.691406 4.585938 17.429688 4.480469 17.375 4.398438 C 17.355469 4.375 17.332031 4.367188 17.332031 4.390625 C 17.332031 4.414062 17.246094 4.390625 17.140625 4.324219 C 17.039062 4.261719 16.933594 4.214844 16.902344 4.214844 C 16.875 4.214844 16.8125 4.175781 16.761719 4.132812 C 16.246094 3.679688 15.980469 3.636719 14.453125 3.734375 Z M 15.601562 4.535156 C 15.585938 4.558594 15.617188 4.566406 15.667969 4.550781 C 15.722656 4.539062 15.824219 4.585938 15.910156 4.660156 C 16.058594 4.800781 16.03125 4.84375 15.851562 4.753906 C 15.800781 4.730469 15.691406 4.683594 15.601562 4.65625 C 15.515625 4.625 15.398438 4.582031 15.34375 4.558594 C 15.273438 4.535156 15.257812 4.542969 15.28125 4.597656 C 15.300781 4.644531 15.28125 4.675781 15.230469 4.675781 C 15.148438 4.675781 15.140625 4.601562 15.222656 4.507812 C 15.273438 4.441406 15.644531 4.46875 15.601562 4.535156 Z M 15.054688 4.777344 C 15.023438 4.863281 14.878906 4.878906 14.878906 4.800781 C 14.878906 4.769531 14.84375 4.746094 14.800781 4.746094 C 14.753906 4.746094 14.734375 4.777344 14.757812 4.835938 C 14.789062 4.917969 14.785156 4.921875 14.710938 4.851562 C 14.660156 4.8125 14.644531 4.761719 14.671875 4.757812 C 14.703125 4.746094 14.691406 4.699219 14.65625 4.652344 C 14.597656 4.582031 14.597656 4.570312 14.671875 4.597656 C 14.71875 4.613281 14.789062 4.609375 14.832031 4.585938 C 14.921875 4.527344 15.097656 4.671875 15.054688 4.777344 Z M 16.1875 4.640625 C 16.203125 4.671875 16.179688 4.675781 16.136719 4.660156 C 16.042969 4.625 16.027344 4.585938 16.101562 4.585938 C 16.132812 4.585938 16.171875 4.609375 16.1875 4.640625 Z M 16.710938 4.949219 C 16.792969 5.03125 16.800781 5.023438 16.769531 4.945312 C 16.734375 4.863281 16.757812 4.863281 16.964844 4.953125 C 17.09375 5.011719 17.210938 5.109375 17.238281 5.167969 C 17.257812 5.230469 17.300781 5.28125 17.332031 5.28125 C 17.359375 5.28125 17.386719 5.300781 17.386719 5.324219 C 17.386719 5.34375 17.339844 5.367188 17.28125 5.367188 C 17.222656 5.367188 17.171875 5.332031 17.171875 5.296875 C 17.171875 5.257812 17.148438 5.226562 17.113281 5.226562 C 17.089844 5.226562 17.078125 5.253906 17.097656 5.285156 C 17.113281 5.316406 17.070312 5.300781 16.996094 5.253906 C 16.917969 5.207031 16.828125 5.183594 16.792969 5.207031 C 16.757812 5.226562 16.746094 5.222656 16.761719 5.183594 C 16.800781 5.128906 16.667969 4.996094 16.375 4.785156 C 16.246094 4.691406 16.246094 4.691406 16.425781 4.777344 C 16.527344 4.828125 16.65625 4.902344 16.710938 4.949219 Z M 13.820312 4.988281 C 13.835938 4.976562 13.84375 5.023438 13.84375 5.09375 C 13.84375 5.167969 13.824219 5.226562 13.796875 5.226562 C 13.769531 5.226562 13.765625 5.1875 13.78125 5.148438 C 13.796875 5.097656 13.777344 5.050781 13.734375 5.035156 C 13.691406 5.011719 13.652344 4.976562 13.652344 4.949219 C 13.652344 4.910156 13.679688 4.917969 13.722656 4.953125 C 13.765625 4.988281 13.808594 5.003906 13.820312 4.988281 Z M 16.398438 5.003906 C 16.382812 5.019531 16.339844 5.003906 16.304688 4.964844 C 16.257812 4.910156 16.261719 4.90625 16.335938 4.9375 C 16.390625 4.953125 16.414062 4.988281 16.398438 5.003906 Z M 14.277344 5.09375 C 14.277344 5.136719 14.257812 5.15625 14.230469 5.140625 C 14.207031 5.125 14.1875 5.09375 14.1875 5.0625 C 14.1875 5.035156 14.207031 5.011719 14.230469 5.011719 C 14.257812 5.011719 14.277344 5.050781 14.277344 5.09375 Z M 14.640625 5.066406 C 14.65625 5.09375 14.644531 5.121094 14.617188 5.121094 C 14.585938 5.121094 14.558594 5.09375 14.558594 5.066406 C 14.558594 5.035156 14.570312 5.011719 14.582031 5.011719 C 14.597656 5.011719 14.625 5.035156 14.640625 5.066406 Z M 13.691406 5.097656 C 13.675781 5.113281 13.625 5.121094 13.589844 5.105469 C 13.546875 5.089844 13.5625 5.070312 13.621094 5.070312 C 13.679688 5.066406 13.710938 5.082031 13.691406 5.097656 Z M 16.625 5.097656 C 16.609375 5.113281 16.558594 5.121094 16.523438 5.105469 C 16.480469 5.089844 16.496094 5.070312 16.554688 5.070312 C 16.613281 5.066406 16.644531 5.082031 16.625 5.097656 Z M 13.441406 5.171875 C 13.441406 5.199219 13.429688 5.226562 13.417969 5.226562 C 13.402344 5.226562 13.375 5.199219 13.359375 5.171875 C 13.34375 5.140625 13.355469 5.121094 13.382812 5.121094 C 13.414062 5.121094 13.441406 5.140625 13.441406 5.171875 Z M 11.375 5.792969 C 11.417969 5.835938 11.238281 6.179688 11.167969 6.1875 C 11.09375 6.1875 11.140625 5.855469 11.222656 5.800781 C 11.296875 5.753906 11.332031 5.75 11.375 5.792969 Z M 11.894531 9.558594 C 11.703125 9.585938 11.449219 9.648438 11.339844 9.707031 C 11.089844 9.828125 11.007812 9.808594 11.246094 9.683594 C 11.460938 9.574219 11.761719 9.503906 12.027344 9.503906 C 12.179688 9.503906 12.148438 9.519531 11.894531 9.558594 Z M 19.558594 9.609375 C 19.542969 9.652344 19.523438 9.636719 19.523438 9.578125 C 19.519531 9.519531 19.535156 9.488281 19.550781 9.507812 C 19.566406 9.523438 19.574219 9.574219 19.558594 9.609375 Z M 14.011719 9.578125 C 13.996094 9.59375 13.945312 9.601562 13.910156 9.585938 C 13.867188 9.566406 13.882812 9.550781 13.941406 9.550781 C 14 9.546875 14.03125 9.5625 14.011719 9.578125 Z M 14.292969 10.136719 C 14.292969 10.238281 14.273438 10.246094 14.015625 10.214844 C 13.855469 10.191406 13.667969 10.203125 13.589844 10.234375 C 13.476562 10.277344 13.441406 10.277344 13.441406 10.222656 C 13.441406 10.179688 13.566406 10.15625 13.828125 10.144531 C 14.039062 10.132812 14.222656 10.101562 14.230469 10.074219 C 14.261719 9.988281 14.292969 10.019531 14.292969 10.136719 Z M 11.472656 11.695312 C 11.441406 11.738281 11.425781 11.78125 11.441406 11.796875 C 11.457031 11.808594 11.429688 11.824219 11.386719 11.824219 C 11.316406 11.824219 11.316406 11.808594 11.398438 11.722656 C 11.5 11.609375 11.5625 11.589844 11.472656 11.695312 Z M 12.089844 11.710938 C 12.074219 11.726562 12.027344 11.734375 11.988281 11.71875 C 11.945312 11.703125 11.960938 11.683594 12.019531 11.683594 C 12.078125 11.679688 12.113281 11.695312 12.089844 11.710938 Z M 18.347656 13.171875 C 18.375 13.125 18.390625 13.152344 18.382812 13.238281 C 18.378906 13.308594 18.339844 13.371094 18.304688 13.371094 C 18.265625 13.371094 18.246094 13.339844 18.261719 13.296875 C 18.277344 13.257812 18.265625 13.226562 18.238281 13.226562 C 18.214844 13.226562 18.207031 13.183594 18.230469 13.128906 C 18.261719 13.046875 18.265625 13.046875 18.28125 13.140625 C 18.296875 13.214844 18.316406 13.226562 18.347656 13.171875 Z M 16.410156 13.84375 C 16.410156 14.039062 16.277344 13.855469 16.0625 13.359375 C 16.046875 13.328125 16.121094 13.40625 16.222656 13.535156 C 16.324219 13.664062 16.410156 13.800781 16.410156 13.84375 Z M 18.171875 13.691406 C 18.160156 13.777344 18.148438 13.71875 18.148438 13.574219 C 18.148438 13.425781 18.160156 13.359375 18.171875 13.425781 C 18.179688 13.492188 18.179688 13.609375 18.171875 13.691406 Z M 15.839844 13.492188 C 15.839844 13.519531 15.828125 13.546875 15.820312 13.546875 C 15.800781 13.546875 15.777344 13.519531 15.761719 13.492188 C 15.742188 13.460938 15.753906 13.441406 15.78125 13.441406 C 15.8125 13.441406 15.839844 13.460938 15.839844 13.492188 Z M 16.097656 13.625 C 16.078125 13.644531 16.046875 13.617188 16.03125 13.5625 C 16 13.488281 16.003906 13.484375 16.058594 13.53125 C 16.097656 13.566406 16.113281 13.609375 16.097656 13.625 Z M 16.214844 13.792969 C 16.214844 13.835938 16.113281 13.863281 16.085938 13.824219 C 16.070312 13.796875 16.089844 13.777344 16.132812 13.777344 C 16.175781 13.777344 16.214844 13.785156 16.214844 13.792969 Z M 13.664062 13.96875 C 13.703125 13.863281 13.972656 13.957031 13.972656 14.078125 C 13.972656 14.144531 13.945312 14.171875 13.898438 14.15625 C 13.855469 14.136719 13.710938 14.121094 13.566406 14.117188 C 13.40625 14.113281 13.308594 14.078125 13.289062 14.03125 C 13.273438 13.988281 13.289062 13.972656 13.324219 13.996094 C 13.347656 14.011719 13.390625 13.988281 13.40625 13.941406 C 13.441406 13.863281 13.449219 13.863281 13.542969 13.941406 C 13.617188 14.003906 13.648438 14.015625 13.664062 13.96875 Z M 14.453125 14.054688 C 14.453125 14.136719 14.160156 14.171875 14.113281 14.085938 C 14.070312 14.015625 14.136719 13.972656 14.304688 13.972656 C 14.398438 13.972656 14.453125 14 14.453125 14.054688 Z M 14.746094 14.070312 C 14.746094 14.164062 14.640625 14.148438 14.625 14.046875 C 14.609375 13.996094 14.628906 13.96875 14.675781 13.984375 C 14.714844 14 14.746094 14.039062 14.746094 14.070312 Z M 18.921875 14.335938 C 19.265625 14.683594 19.632812 15.246094 19.648438 15.441406 C 19.648438 15.507812 19.667969 15.550781 19.695312 15.535156 C 19.75 15.503906 19.742188 15.742188 19.683594 15.828125 C 19.652344 15.882812 19.625 15.855469 19.574219 15.738281 C 19.535156 15.648438 19.433594 15.492188 19.347656 15.398438 C 19.257812 15.308594 19.207031 15.257812 19.226562 15.296875 C 19.257812 15.355469 19.242188 15.359375 19.152344 15.3125 C 19.09375 15.273438 19.039062 15.226562 19.039062 15.199219 C 19.039062 15.167969 19.003906 15.148438 18.960938 15.148438 C 18.917969 15.148438 18.851562 15.097656 18.816406 15.039062 C 18.777344 14.980469 18.714844 14.933594 18.675781 14.933594 C 18.640625 14.933594 18.585938 14.875 18.550781 14.800781 C 18.515625 14.730469 18.46875 14.683594 18.4375 14.703125 C 18.40625 14.726562 18.394531 14.6875 18.421875 14.609375 C 18.464844 14.457031 18.492188 14.316406 18.5 14.144531 C 18.511719 13.960938 18.59375 14 18.921875 14.335938 Z M 19.644531 14.113281 C 19.601562 14.132812 19.59375 14.191406 19.632812 14.308594 C 19.660156 14.40625 19.679688 14.527344 19.675781 14.585938 C 19.675781 14.667969 19.652344 14.65625 19.601562 14.527344 C 19.558594 14.4375 19.507812 14.296875 19.488281 14.21875 C 19.460938 14.097656 19.472656 14.078125 19.578125 14.085938 C 19.648438 14.085938 19.679688 14.101562 19.644531 14.113281 Z M 15.199219 14.316406 C 15.199219 14.339844 15.183594 14.347656 15.164062 14.332031 C 15.148438 14.308594 15.097656 14.320312 15.066406 14.347656 C 15.023438 14.382812 14.953125 14.378906 14.851562 14.324219 C 14.703125 14.246094 14.703125 14.246094 14.953125 14.257812 C 15.089844 14.261719 15.199219 14.289062 15.199219 14.316406 Z M 20 14.375 C 20.070312 14.449219 20.113281 14.507812 20.097656 14.507812 C 20.085938 14.507812 20.015625 14.449219 19.945312 14.375 C 19.878906 14.296875 19.835938 14.238281 19.851562 14.238281 C 19.863281 14.238281 19.929688 14.296875 20 14.375 Z M 14.851562 14.496094 C 14.859375 14.558594 14.832031 14.613281 14.792969 14.613281 C 14.699219 14.613281 14.660156 14.535156 14.699219 14.425781 C 14.746094 14.308594 14.84375 14.351562 14.851562 14.496094 Z M 15.664062 14.515625 C 15.742188 14.554688 15.820312 14.585938 15.828125 14.59375 C 15.835938 14.59375 15.828125 14.640625 15.808594 14.6875 C 15.765625 14.792969 15.695312 14.800781 15.667969 14.691406 C 15.660156 14.640625 15.632812 14.65625 15.589844 14.746094 C 15.535156 14.863281 15.542969 14.878906 15.632812 14.878906 C 15.753906 14.878906 15.761719 14.871094 15.617188 15.183594 C 15.484375 15.484375 15.484375 15.488281 15.472656 15.625 C 15.472656 15.683594 15.429688 15.734375 15.382812 15.734375 C 15.339844 15.734375 15.316406 15.707031 15.332031 15.679688 C 15.347656 15.648438 15.316406 15.625 15.257812 15.625 C 15.195312 15.625 15.148438 15.601562 15.148438 15.566406 C 15.148438 15.535156 15.195312 15.519531 15.253906 15.535156 C 15.3125 15.550781 15.359375 15.542969 15.359375 15.515625 C 15.359375 15.488281 15.316406 15.460938 15.269531 15.460938 C 15.179688 15.457031 15.179688 15.449219 15.269531 15.429688 C 15.367188 15.402344 15.390625 15.332031 15.3125 15.285156 C 15.285156 15.265625 15.246094 15.285156 15.230469 15.316406 C 15.1875 15.40625 15.242188 15.136719 15.289062 15.007812 C 15.316406 14.9375 15.308594 14.921875 15.238281 14.949219 C 15.167969 14.976562 15.164062 14.960938 15.210938 14.8125 C 15.285156 14.585938 15.308594 14.570312 15.3125 14.726562 C 15.316406 15.136719 15.328125 15.195312 15.367188 15.167969 C 15.390625 15.152344 15.417969 15.195312 15.417969 15.265625 C 15.425781 15.371094 15.429688 15.375 15.449219 15.28125 C 15.464844 15.222656 15.503906 15.15625 15.542969 15.136719 C 15.578125 15.109375 15.566406 15.09375 15.515625 15.09375 C 15.449219 15.09375 15.417969 15.03125 15.398438 14.863281 C 15.382812 14.742188 15.386719 14.628906 15.417969 14.625 C 15.445312 14.613281 15.464844 14.570312 15.464844 14.527344 C 15.464844 14.4375 15.476562 14.4375 15.664062 14.515625 Z M 16.613281 14.507812 C 16.628906 14.535156 16.617188 14.558594 16.59375 14.558594 C 16.558594 14.558594 16.535156 14.535156 16.535156 14.507812 C 16.535156 14.476562 16.542969 14.453125 16.554688 14.453125 C 16.570312 14.453125 16.597656 14.476562 16.613281 14.507812 Z M 15.039062 14.683594 C 15.039062 14.785156 14.894531 14.964844 14.851562 14.921875 C 14.832031 14.902344 14.859375 14.828125 14.917969 14.753906 C 15.03125 14.597656 15.039062 14.585938 15.039062 14.683594 Z M 20.453125 14.667969 C 20.46875 14.691406 20.464844 14.71875 20.433594 14.71875 C 20.40625 14.71875 20.363281 14.691406 20.347656 14.667969 C 20.332031 14.632812 20.335938 14.613281 20.367188 14.613281 C 20.394531 14.613281 20.4375 14.632812 20.453125 14.667969 Z M 15.910156 14.773438 C 15.878906 14.890625 15.785156 14.976562 15.785156 14.886719 C 15.785156 14.792969 15.851562 14.667969 15.894531 14.667969 C 15.921875 14.667969 15.925781 14.714844 15.910156 14.773438 Z M 19.71875 14.890625 C 19.703125 14.929688 19.691406 14.902344 19.691406 14.828125 C 19.691406 14.753906 19.703125 14.726562 19.71875 14.757812 C 19.726562 14.792969 19.726562 14.859375 19.71875 14.890625 Z M 14.773438 14.828125 C 14.773438 14.851562 14.734375 14.878906 14.6875 14.878906 C 14.644531 14.878906 14.625 14.851562 14.640625 14.828125 C 14.65625 14.792969 14.691406 14.773438 14.726562 14.773438 C 14.753906 14.773438 14.773438 14.792969 14.773438 14.828125 Z M 15.097656 14.917969 C 15.035156 15.023438 15.023438 14.992188 15.070312 14.851562 C 15.09375 14.804688 15.121094 14.777344 15.128906 14.792969 C 15.148438 14.804688 15.128906 14.863281 15.097656 14.917969 Z M 18.304688 15.34375 C 18.320312 16.019531 18.292969 16.597656 18.234375 17.152344 L 18.179688 17.632812 L 18.582031 18.054688 C 18.851562 18.335938 19.019531 18.566406 19.089844 18.742188 C 19.34375 19.40625 19.519531 19.910156 19.519531 19.96875 C 19.519531 20.042969 19.300781 20.160156 19.171875 20.160156 C 19.050781 20.160156 19.070312 20.234375 19.398438 20.871094 C 19.679688 21.417969 19.742188 21.507812 20.261719 22 C 21.121094 22.816406 21.488281 23.199219 21.414062 23.199219 C 21.375 23.199219 21.710938 23.675781 21.777344 23.71875 C 21.839844 23.753906 21.660156 23.472656 21.523438 23.316406 C 21.464844 23.246094 21.449219 23.199219 21.488281 23.199219 C 21.542969 23.199219 21.703125 23.339844 22.550781 24.113281 C 22.710938 24.261719 22.886719 24.492188 22.953125 24.640625 C 23.023438 24.785156 23.097656 24.886719 23.121094 24.863281 C 23.140625 24.84375 23.140625 24.886719 23.121094 24.953125 C 23.089844 25.0625 23.097656 25.078125 23.167969 25.050781 C 23.214844 25.03125 23.253906 25.039062 23.253906 25.066406 C 23.253906 25.097656 23.230469 25.121094 23.199219 25.121094 C 23.167969 25.121094 23.148438 25.269531 23.148438 25.449219 C 23.140625 26.011719 23.03125 26.414062 22.769531 26.800781 C 22.527344 27.152344 22.4375 27.230469 22.332031 27.164062 C 22.191406 27.078125 22.03125 27.09375 21.972656 27.199219 C 21.925781 27.285156 21.894531 27.296875 21.8125 27.253906 C 21.667969 27.171875 21.617188 27.1875 21.585938 27.308594 C 21.5625 27.390625 21.507812 27.414062 21.308594 27.414062 C 21.171875 27.414062 21.019531 27.433594 20.964844 27.460938 C 20.894531 27.5 20.789062 27.460938 20.539062 27.300781 L 20.199219 27.089844 L 20.347656 26.933594 C 20.425781 26.847656 20.480469 26.746094 20.464844 26.703125 C 20.441406 26.652344 20.464844 26.632812 20.523438 26.652344 C 20.660156 26.683594 21.105469 26.363281 21.332031 26.058594 C 21.589844 25.722656 21.683594 25.5 21.785156 25.007812 C 21.878906 24.582031 21.886719 24.382812 21.8125 24.570312 C 21.785156 24.640625 21.734375 24.691406 21.695312 24.691406 C 21.660156 24.691406 21.492188 24.515625 21.332031 24.296875 C 20.9375 23.777344 20.675781 23.578125 20.28125 23.519531 C 20.113281 23.492188 19.878906 23.445312 19.761719 23.414062 C 19.644531 23.382812 19.484375 23.339844 19.402344 23.316406 C 19.328125 23.296875 19.167969 23.1875 19.046875 23.078125 C 18.929688 22.96875 18.8125 22.878906 18.785156 22.878906 C 18.753906 22.878906 18.691406 22.820312 18.644531 22.746094 C 18.535156 22.582031 18.367188 22.554688 18.453125 22.71875 C 18.484375 22.785156 18.496094 22.875 18.480469 22.933594 C 18.453125 23.011719 18.46875 23.023438 18.566406 23.003906 C 18.640625 22.980469 18.671875 22.992188 18.652344 23.03125 C 18.597656 23.105469 18.660156 23.253906 18.746094 23.253906 C 18.785156 23.253906 18.828125 23.3125 18.835938 23.386719 C 18.859375 23.492188 18.84375 23.519531 18.753906 23.523438 C 18.691406 23.523438 18.671875 23.542969 18.710938 23.558594 C 18.761719 23.578125 18.761719 23.601562 18.710938 23.667969 C 18.652344 23.738281 18.65625 23.75 18.734375 23.71875 C 18.8125 23.691406 18.832031 23.703125 18.816406 23.777344 C 18.804688 23.839844 18.757812 23.863281 18.671875 23.851562 C 18.507812 23.824219 18.132812 23.589844 18.132812 23.507812 C 18.132812 23.476562 18.1875 23.492188 18.25 23.550781 L 18.367188 23.652344 L 18.261719 23.507812 C 18.207031 23.433594 18.148438 23.371094 18.132812 23.371094 C 18.03125 23.375 18.011719 23.347656 18.078125 23.308594 C 18.128906 23.273438 18.136719 23.238281 18.105469 23.210938 C 18.03125 23.15625 17.945312 23.011719 17.734375 22.585938 C 17.601562 22.316406 17.566406 22.207031 17.617188 22.175781 C 17.664062 22.144531 17.664062 22.132812 17.605469 22.132812 C 17.566406 22.132812 17.546875 22.101562 17.5625 22.0625 C 17.574219 22.03125 17.550781 21.96875 17.515625 21.929688 C 17.464844 21.886719 17.441406 21.882812 17.441406 21.921875 C 17.441406 21.953125 17.414062 21.960938 17.382812 21.945312 C 17.347656 21.925781 17.339844 21.871094 17.355469 21.828125 C 17.371094 21.785156 17.359375 21.769531 17.332031 21.785156 C 17.300781 21.800781 17.28125 21.792969 17.28125 21.765625 C 17.28125 21.734375 17.300781 21.707031 17.324219 21.707031 C 17.347656 21.707031 17.414062 21.667969 17.472656 21.621094 C 17.566406 21.546875 17.5625 21.542969 17.375 21.574219 C 17.210938 21.601562 17.152344 21.578125 16.945312 21.402344 C 16.671875 21.171875 16.652344 21.140625 16.789062 21.097656 C 16.835938 21.082031 16.816406 21.078125 16.734375 21.089844 C 16.652344 21.097656 16.585938 21.082031 16.585938 21.054688 C 16.585938 21.035156 16.527344 21.023438 16.457031 21.046875 C 16.355469 21.066406 16.320312 21.050781 16.292969 20.964844 C 16.273438 20.890625 16.214844 20.851562 16.121094 20.851562 C 15.925781 20.851562 15.425781 20.59375 15.386719 20.46875 C 15.359375 20.398438 15.328125 20.382812 15.289062 20.414062 C 15.148438 20.527344 14.324219 20.628906 14.273438 20.542969 C 14.222656 20.464844 14.339844 20.398438 14.828125 20.234375 C 15.125 20.132812 15.238281 20.074219 15.164062 20.0625 C 15.09375 20.054688 15.039062 20.027344 15.039062 20.003906 C 15.039062 19.910156 15.472656 19.675781 15.945312 19.507812 L 16.453125 19.332031 L 16.074219 19.296875 C 15.621094 19.246094 15.417969 19.179688 15.382812 19.054688 C 15.324219 18.851562 15.269531 18.8125 15.109375 18.804688 C 14.929688 18.800781 14.875 18.878906 14.859375 19.148438 C 14.851562 19.246094 14.828125 19.28125 14.734375 19.28125 C 14.667969 19.28125 14.613281 19.257812 14.617188 19.226562 C 14.625 19.140625 14.398438 19.089844 14.277344 19.152344 C 14.214844 19.179688 14.25 19.125 14.363281 19.03125 C 14.609375 18.8125 15.371094 18.398438 15.53125 18.398438 C 15.648438 18.394531 15.648438 18.394531 15.550781 18.320312 C 15.492188 18.277344 15.332031 18.222656 15.1875 18.207031 C 14.917969 18.171875 14.886719 18.132812 15.011719 18.027344 C 15.054688 17.988281 15.078125 17.941406 15.0625 17.914062 C 15.046875 17.886719 15.097656 17.800781 15.171875 17.726562 C 15.308594 17.59375 15.339844 17.589844 15.636719 17.621094 C 15.878906 17.652344 15.945312 17.644531 15.921875 17.59375 C 15.886719 17.546875 15.9375 17.542969 16.113281 17.566406 C 16.347656 17.601562 16.347656 17.601562 16.347656 17.441406 C 16.347656 17.355469 16.324219 17.28125 16.304688 17.28125 C 16.28125 17.28125 16.289062 17.230469 16.320312 17.167969 C 16.355469 17.105469 16.414062 17.070312 16.457031 17.089844 C 16.496094 17.105469 16.527344 17.097656 16.515625 17.078125 C 16.480469 16.964844 17.308594 16.085938 17.402344 16.136719 C 17.441406 16.160156 17.449219 16.160156 17.429688 16.132812 C 17.40625 16.113281 17.503906 15.980469 17.644531 15.835938 C 18.054688 15.417969 18.097656 15.355469 18.144531 15.109375 C 18.222656 14.742188 18.292969 14.84375 18.304688 15.34375 Z M 14.628906 15.039062 C 14.644531 15.097656 14.632812 15.148438 14.609375 15.148438 C 14.582031 15.148438 14.558594 15.097656 14.558594 15.039062 C 14.558594 14.980469 14.570312 14.933594 14.582031 14.933594 C 14.59375 14.933594 14.613281 14.980469 14.628906 15.039062 Z M 21.226562 15.097656 C 21.226562 15.125 21.207031 15.148438 21.171875 15.148438 C 21.148438 15.148438 21.121094 15.109375 21.121094 15.0625 C 21.121094 15.019531 21.148438 14.996094 21.171875 15.011719 C 21.207031 15.03125 21.226562 15.066406 21.226562 15.097656 Z M 14.96875 15.53125 C 14.988281 15.5 15.019531 15.476562 15.039062 15.492188 C 15.066406 15.507812 15.078125 15.558594 15.054688 15.601562 C 15.039062 15.652344 15.0625 15.679688 15.121094 15.679688 C 15.167969 15.679688 15.1875 15.703125 15.171875 15.734375 C 15.15625 15.761719 15.179688 15.785156 15.222656 15.785156 C 15.269531 15.785156 15.308594 15.828125 15.308594 15.886719 C 15.308594 15.945312 15.332031 16 15.367188 16.011719 C 15.390625 16.019531 15.402344 16.070312 15.382812 16.128906 C 15.355469 16.203125 15.332031 16.207031 15.296875 16.148438 C 15.257812 16.101562 15.253906 16.113281 15.269531 16.199219 C 15.296875 16.320312 15.222656 16.375 15.0625 16.351562 C 15.003906 16.339844 14.9375 16.363281 14.917969 16.394531 C 14.890625 16.425781 14.878906 16.398438 14.886719 16.320312 C 14.894531 16.097656 14.886719 16.054688 14.792969 16.054688 C 14.746094 16.054688 14.71875 16.085938 14.734375 16.117188 C 14.746094 16.15625 14.789062 16.179688 14.820312 16.171875 C 14.859375 16.164062 14.875 16.179688 14.859375 16.203125 C 14.84375 16.230469 14.761719 16.246094 14.683594 16.234375 C 14.601562 16.230469 14.515625 16.25 14.496094 16.28125 C 14.4375 16.375 14.441406 16.175781 14.5 16.0625 C 14.570312 15.925781 14.511719 15.625 14.40625 15.625 C 14.335938 15.625 14.335938 15.617188 14.394531 15.578125 C 14.433594 15.550781 14.453125 15.507812 14.433594 15.476562 C 14.410156 15.445312 14.457031 15.445312 14.566406 15.484375 C 14.710938 15.542969 14.734375 15.535156 14.785156 15.445312 C 14.84375 15.34375 14.847656 15.34375 14.894531 15.472656 C 14.921875 15.546875 14.953125 15.574219 14.96875 15.53125 Z M 16.347656 15.417969 C 16.40625 15.507812 16.339844 15.53125 16.265625 15.441406 C 16.222656 15.390625 16.222656 15.359375 16.257812 15.359375 C 16.289062 15.359375 16.332031 15.386719 16.347656 15.417969 Z M 22.292969 15.660156 C 22.292969 15.667969 22.257812 15.679688 22.214844 15.679688 C 22.171875 15.679688 22.132812 15.660156 22.132812 15.625 C 22.132812 15.601562 22.171875 15.589844 22.214844 15.605469 C 22.257812 15.625 22.292969 15.648438 22.292969 15.660156 Z M 22.171875 15.765625 C 22.15625 15.78125 22.105469 15.785156 22.070312 15.769531 C 22.027344 15.753906 22.042969 15.738281 22.101562 15.738281 C 22.160156 15.734375 22.191406 15.75 22.171875 15.765625 Z M 23.246094 15.820312 C 23.429688 15.855469 23.472656 15.945312 23.308594 15.945312 C 23.246094 15.945312 23.199219 15.925781 23.199219 15.898438 C 23.199219 15.871094 23.148438 15.835938 23.082031 15.824219 C 23.011719 15.8125 22.988281 15.796875 23.019531 15.792969 C 23.050781 15.792969 23.15625 15.800781 23.246094 15.820312 Z M 14.320312 15.894531 C 14.335938 15.921875 14.324219 15.945312 14.296875 15.945312 C 14.265625 15.945312 14.238281 15.921875 14.238281 15.894531 C 14.238281 15.863281 14.25 15.839844 14.261719 15.839844 C 14.277344 15.839844 14.304688 15.863281 14.320312 15.894531 Z M 23.972656 16.003906 C 24.054688 16.042969 24.039062 16.046875 23.910156 16.019531 C 23.796875 16.003906 23.734375 16.015625 23.734375 16.046875 C 23.734375 16.078125 23.761719 16.105469 23.792969 16.105469 C 23.820312 16.105469 23.835938 16.128906 23.8125 16.160156 C 23.777344 16.21875 23.578125 16.046875 23.609375 15.984375 C 23.644531 15.929688 23.839844 15.941406 23.972656 16.003906 Z M 24.28125 16.039062 C 24.246094 16.046875 24.179688 16.046875 24.148438 16.039062 C 24.113281 16.019531 24.136719 16.011719 24.214844 16.011719 C 24.289062 16.011719 24.316406 16.019531 24.28125 16.039062 Z M 24.085938 16.25 C 24.0625 16.273438 24.019531 16.257812 23.984375 16.214844 C 23.9375 16.160156 23.9375 16.15625 23.988281 16.179688 C 24.027344 16.203125 24.054688 16.191406 24.058594 16.148438 C 24.058594 16.089844 24.070312 16.089844 24.089844 16.148438 C 24.105469 16.1875 24.101562 16.234375 24.085938 16.25 Z M 19.769531 16.40625 C 19.753906 16.421875 19.707031 16.425781 19.667969 16.410156 C 19.625 16.394531 19.644531 16.378906 19.703125 16.378906 C 19.761719 16.375 19.792969 16.390625 19.769531 16.40625 Z M 19.839844 16.652344 C 19.839844 16.660156 19.800781 16.761719 19.761719 16.878906 L 19.683594 17.09375 L 19.679688 16.863281 C 19.679688 16.699219 19.703125 16.640625 19.761719 16.640625 C 19.800781 16.640625 19.839844 16.644531 19.839844 16.652344 Z M 24.40625 17.050781 C 24.351562 17.1875 24.308594 17.09375 24.355469 16.929688 C 24.382812 16.816406 24.398438 16.800781 24.414062 16.871094 C 24.425781 16.921875 24.421875 17.003906 24.40625 17.050781 Z M 24.976562 17.257812 C 24.933594 17.371094 24.800781 17.347656 24.800781 17.230469 C 24.800781 17.15625 24.828125 17.136719 24.902344 17.15625 C 24.964844 17.171875 24.992188 17.214844 24.976562 17.257812 Z M 19.785156 17.257812 C 19.785156 17.300781 19.761719 17.324219 19.734375 17.308594 C 19.703125 17.285156 19.691406 17.246094 19.707031 17.222656 C 19.753906 17.148438 19.785156 17.164062 19.785156 17.257812 Z M 25.1875 17.53125 C 25.210938 17.632812 25.199219 17.707031 25.171875 17.707031 C 25.140625 17.707031 25.121094 17.617188 25.121094 17.507812 C 25.121094 17.28125 25.148438 17.289062 25.1875 17.53125 Z M 19.878906 17.585938 C 19.886719 17.617188 19.863281 17.652344 19.8125 17.667969 C 19.761719 17.695312 19.734375 17.667969 19.734375 17.59375 C 19.734375 17.484375 19.84375 17.476562 19.878906 17.585938 Z M 24.960938 17.761719 C 24.960938 17.785156 24.9375 17.8125 24.90625 17.8125 C 24.878906 17.8125 24.851562 17.785156 24.851562 17.761719 C 24.851562 17.726562 24.878906 17.707031 24.90625 17.707031 C 24.9375 17.707031 24.960938 17.726562 24.960938 17.761719 Z M 25.347656 18.8125 C 25.3125 18.828125 25.28125 18.875 25.28125 18.917969 C 25.28125 18.964844 25.269531 18.992188 25.253906 18.976562 C 25.230469 18.960938 25.238281 18.878906 25.257812 18.800781 C 25.285156 18.691406 25.308594 18.671875 25.355469 18.726562 C 25.398438 18.769531 25.398438 18.792969 25.347656 18.8125 Z M 25.765625 20.292969 C 25.792969 20.273438 25.8125 20.292969 25.8125 20.332031 C 25.8125 20.382812 25.753906 20.394531 25.605469 20.382812 L 25.390625 20.363281 L 25.535156 20.238281 C 25.675781 20.117188 25.679688 20.117188 25.695312 20.21875 C 25.707031 20.277344 25.738281 20.308594 25.765625 20.292969 Z M 20.039062 20.492188 C 20.019531 20.535156 20.003906 20.515625 20.003906 20.457031 C 20 20.398438 20.015625 20.367188 20.03125 20.390625 C 20.046875 20.40625 20.054688 20.453125 20.039062 20.492188 Z M 25.761719 20.554688 C 25.761719 20.566406 25.722656 20.601562 25.679688 20.640625 C 25.609375 20.699219 25.605469 20.691406 25.632812 20.617188 C 25.660156 20.542969 25.761719 20.496094 25.761719 20.554688 Z M 15.625 20.859375 C 15.625 20.992188 15.460938 21.0625 15.0625 21.09375 C 14.714844 21.121094 14.660156 21.113281 14.746094 21.0625 C 14.800781 21.023438 14.960938 20.996094 15.09375 21.003906 C 15.226562 21.007812 15.371094 20.992188 15.414062 20.960938 C 15.484375 20.910156 15.484375 20.90625 15.414062 20.902344 C 15.359375 20.902344 15.371094 20.886719 15.441406 20.851562 C 15.589844 20.789062 15.625 20.789062 15.625 20.859375 Z M 15.851562 20.953125 C 15.886719 20.894531 15.910156 20.894531 15.929688 20.945312 C 15.941406 20.980469 15.988281 21.011719 16.03125 21.011719 C 16.078125 21.011719 16.097656 20.988281 16.078125 20.960938 C 16.0625 20.929688 16.085938 20.90625 16.132812 20.90625 C 16.179688 20.90625 16.203125 20.929688 16.1875 20.960938 C 16.171875 20.988281 16.179688 21.011719 16.21875 21.011719 C 16.261719 21.011719 16.265625 21.03125 16.238281 21.0625 C 16.164062 21.128906 15.769531 21.054688 15.753906 20.96875 C 15.742188 20.929688 15.753906 20.929688 15.769531 20.964844 C 15.792969 21.007812 15.8125 21.003906 15.851562 20.953125 Z M 25.980469 21.871094 C 25.910156 21.929688 25.835938 21.960938 25.820312 21.941406 C 25.800781 21.921875 25.820312 21.894531 25.855469 21.882812 C 25.894531 21.867188 25.953125 21.824219 25.988281 21.785156 C 26.027344 21.75 26.0625 21.726562 26.078125 21.742188 C 26.097656 21.761719 26.046875 21.8125 25.980469 21.871094 Z M 25.625 21.972656 C 25.609375 22 25.542969 22.027344 25.476562 22.019531 C 25.371094 22.015625 25.371094 22.011719 25.492188 21.972656 C 25.566406 21.953125 25.632812 21.929688 25.644531 21.925781 C 25.652344 21.921875 25.644531 21.941406 25.625 21.972656 Z M 24.710938 22.382812 C 24.671875 22.394531 24.609375 22.394531 24.574219 22.382812 C 24.539062 22.367188 24.566406 22.355469 24.640625 22.355469 C 24.714844 22.355469 24.742188 22.367188 24.710938 22.382812 Z M 15.019531 22.851562 C 15.039062 22.910156 15.03125 22.964844 14.992188 22.976562 C 14.960938 22.988281 14.933594 23.03125 14.933594 23.070312 C 14.933594 23.125 14.878906 23.148438 14.769531 23.136719 C 14.558594 23.121094 14.523438 23.0625 14.671875 22.988281 C 14.753906 22.9375 14.769531 22.90625 14.726562 22.863281 C 14.628906 22.769531 14.65625 22.734375 14.828125 22.742188 C 14.9375 22.746094 14.996094 22.777344 15.019531 22.851562 Z M 14.613281 22.933594 C 14.613281 22.960938 14.59375 22.988281 14.558594 22.988281 C 14.535156 22.988281 14.507812 22.960938 14.507812 22.933594 C 14.507812 22.902344 14.535156 22.878906 14.558594 22.878906 C 14.59375 22.878906 14.613281 22.902344 14.613281 22.933594 Z M 15.253906 23.136719 C 15.253906 23.207031 15.1875 23.253906 15.136719 23.222656 C 15.082031 23.1875 15.128906 23.09375 15.207031 23.09375 C 15.230469 23.09375 15.253906 23.113281 15.253906 23.136719 Z M 14.496094 23.492188 C 14.628906 23.535156 14.832031 23.929688 14.753906 23.996094 C 14.71875 24.019531 14.660156 24.027344 14.625 24.003906 C 14.539062 23.953125 14.292969 23.996094 14.1875 24.074219 C 14.117188 24.128906 14.070312 24.132812 13.898438 24.113281 C 13.871094 24.113281 13.882812 24.070312 13.921875 24.027344 C 13.953125 23.984375 13.96875 23.929688 13.957031 23.910156 C 13.941406 23.882812 13.96875 23.78125 14.015625 23.679688 C 14.078125 23.546875 14.085938 23.492188 14.039062 23.476562 C 13.921875 23.441406 13.972656 23.347656 14.097656 23.375 C 14.160156 23.398438 14.25 23.386719 14.292969 23.359375 C 14.351562 23.324219 14.378906 23.332031 14.390625 23.386719 C 14.398438 23.429688 14.449219 23.476562 14.496094 23.492188 Z M 15.253906 23.457031 C 15.3125 24.273438 15.3125 24.398438 15.246094 24.511719 C 15.199219 24.609375 15.167969 24.625 15.109375 24.582031 C 15.070312 24.550781 15.039062 24.476562 15.039062 24.421875 C 15.039062 24.363281 15.023438 24.320312 15.003906 24.320312 C 14.976562 24.320312 14.960938 24.246094 14.960938 24.148438 C 14.960938 24.015625 14.988281 23.972656 15.109375 23.929688 C 15.214844 23.898438 15.253906 23.851562 15.253906 23.753906 C 15.253906 23.589844 15.148438 23.636719 15.140625 23.800781 C 15.140625 23.867188 15.125 23.894531 15.113281 23.855469 C 15.097656 23.820312 15.054688 23.800781 15.011719 23.820312 C 14.960938 23.839844 14.949219 23.8125 14.964844 23.722656 C 14.976562 23.652344 14.976562 23.632812 14.953125 23.667969 C 14.9375 23.703125 14.902344 23.722656 14.875 23.703125 C 14.789062 23.652344 14.878906 23.574219 15.019531 23.574219 C 15.140625 23.574219 15.171875 23.523438 15.152344 23.367188 C 15.140625 23.328125 15.164062 23.3125 15.195312 23.328125 C 15.222656 23.347656 15.246094 23.402344 15.253906 23.457031 Z M 19.601562 24.117188 C 19.59375 24.199219 19.621094 24.273438 19.664062 24.289062 C 19.703125 24.304688 19.734375 24.339844 19.734375 24.375 C 19.734375 24.40625 19.683594 24.382812 19.621094 24.324219 C 19.550781 24.261719 19.523438 24.199219 19.550781 24.15625 C 19.578125 24.105469 19.5625 24.097656 19.503906 24.121094 C 19.441406 24.144531 19.429688 24.132812 19.449219 24.070312 C 19.476562 24 19.460938 23.988281 19.390625 24.015625 C 19.34375 24.039062 19.3125 24.03125 19.328125 24.003906 C 19.34375 23.980469 19.414062 23.960938 19.484375 23.96875 C 19.585938 23.972656 19.605469 24 19.601562 24.117188 Z M 12.1875 25.011719 C 12.203125 25.039062 12.179688 25.066406 12.132812 25.066406 C 12.085938 25.066406 12.0625 25.039062 12.078125 25.011719 C 12.097656 24.980469 12.121094 24.960938 12.132812 24.960938 C 12.144531 24.960938 12.171875 24.980469 12.1875 25.011719 Z M 16.800781 25.050781 C 16.792969 25.3125 16.464844 25.375 16.441406 25.121094 C 16.433594 24.996094 16.433594 24.996094 16.476562 25.09375 C 16.515625 25.183594 16.527344 25.183594 16.527344 25.109375 C 16.535156 25.046875 16.558594 25.03125 16.625 25.050781 C 16.683594 25.070312 16.699219 25.066406 16.671875 25.023438 C 16.652344 24.988281 16.667969 24.960938 16.714844 24.960938 C 16.761719 24.960938 16.800781 25.003906 16.800781 25.050781 Z M 12.535156 25.441406 C 12.535156 25.585938 12.433594 25.625 12.332031 25.53125 C 12.265625 25.460938 12.261719 25.429688 12.316406 25.367188 C 12.398438 25.265625 12.535156 25.3125 12.535156 25.441406 Z M 27.007812 25.484375 C 26.980469 25.503906 26.929688 25.578125 26.894531 25.652344 C 26.835938 25.78125 26.832031 25.78125 26.832031 25.667969 C 26.828125 25.546875 26.976562 25.359375 27.03125 25.414062 C 27.050781 25.429688 27.039062 25.460938 27.007812 25.484375 Z M 13.625 25.726562 C 13.667969 25.765625 13.683594 25.8125 13.667969 25.828125 C 13.644531 25.863281 13.492188 25.738281 13.492188 25.683594 C 13.492188 25.632812 13.550781 25.648438 13.625 25.726562 Z M 12.609375 25.839844 C 12.585938 25.882812 12.566406 25.921875 12.554688 25.921875 C 12.542969 25.921875 12.535156 25.882812 12.535156 25.839844 C 12.535156 25.796875 12.554688 25.761719 12.585938 25.761719 C 12.613281 25.761719 12.625 25.796875 12.609375 25.839844 Z M 13.8125 25.867188 C 13.8125 25.894531 13.785156 25.921875 13.753906 25.921875 C 13.726562 25.921875 13.71875 25.894531 13.734375 25.867188 C 13.75 25.835938 13.777344 25.8125 13.792969 25.8125 C 13.800781 25.8125 13.8125 25.835938 13.8125 25.867188 Z M 26.828125 25.835938 C 26.828125 25.851562 26.804688 25.878906 26.773438 25.894531 C 26.746094 25.910156 26.71875 25.898438 26.71875 25.871094 C 26.71875 25.839844 26.746094 25.8125 26.773438 25.8125 C 26.804688 25.8125 26.828125 25.824219 26.828125 25.835938 Z M 12.613281 26.132812 C 12.632812 26.164062 12.671875 26.175781 12.699219 26.160156 C 12.726562 26.136719 12.746094 26.175781 12.746094 26.234375 C 12.746094 26.292969 12.789062 26.375 12.84375 26.410156 C 12.894531 26.449219 13.09375 26.609375 13.273438 26.769531 C 13.800781 27.238281 13.84375 27.578125 13.402344 27.894531 C 13.265625 27.996094 13.039062 28.175781 12.90625 28.296875 C 12.671875 28.527344 12.535156 28.574219 12.71875 28.375 C 12.816406 28.265625 12.816406 28.261719 12.714844 28.296875 C 12.660156 28.320312 12.582031 28.363281 12.542969 28.390625 C 12.496094 28.425781 12.484375 28.421875 12.507812 28.367188 C 12.523438 28.320312 12.476562 28.257812 12.375 28.199219 C 12.171875 28.074219 12.15625 27.871094 12.347656 27.777344 C 12.476562 27.707031 12.476562 27.707031 12.265625 27.703125 C 12.128906 27.695312 12.046875 27.722656 12.027344 27.777344 C 12.003906 27.835938 12.015625 27.839844 12.070312 27.796875 C 12.121094 27.753906 12.132812 27.777344 12.132812 27.921875 C 12.128906 28.019531 12.113281 28.117188 12.097656 28.132812 C 12.054688 28.179688 11.675781 27.78125 11.710938 27.726562 C 11.726562 27.703125 11.722656 27.648438 11.695312 27.609375 C 11.675781 27.578125 11.652344 27.519531 11.648438 27.492188 C 11.648438 27.460938 11.636719 27.40625 11.636719 27.371094 C 11.617188 27.238281 11.519531 27.3125 11.519531 27.460938 L 11.519531 27.617188 L 11.296875 27.5 C 11.054688 27.371094 10.988281 27.207031 11.121094 27.070312 C 11.164062 27.03125 11.199219 26.964844 11.199219 26.933594 C 11.199219 26.894531 11.242188 26.886719 11.308594 26.90625 C 11.371094 26.929688 11.40625 26.917969 11.402344 26.890625 C 11.382812 26.816406 11.703125 26.550781 11.726562 26.617188 C 11.738281 26.65625 11.761719 26.65625 11.792969 26.609375 C 11.835938 26.542969 11.851562 26.550781 11.894531 26.613281 C 11.929688 26.671875 11.945312 26.652344 11.945312 26.515625 C 11.945312 26.351562 12.011719 26.308594 12.21875 26.335938 C 12.238281 26.339844 12.238281 26.292969 12.222656 26.230469 C 12.203125 26.144531 12.214844 26.128906 12.265625 26.160156 C 12.320312 26.191406 12.332031 26.179688 12.304688 26.117188 C 12.28125 26.054688 12.292969 26.042969 12.355469 26.0625 C 12.414062 26.089844 12.433594 26.078125 12.398438 26.03125 C 12.367188 25.980469 12.382812 25.972656 12.46875 26.019531 C 12.535156 26.054688 12.597656 26.105469 12.613281 26.132812 Z M 20.4375 26.246094 C 20.585938 26.390625 20.691406 26.527344 20.671875 26.542969 C 20.65625 26.558594 20.609375 26.550781 20.570312 26.515625 C 20.527344 26.480469 20.476562 26.476562 20.449219 26.496094 C 20.421875 26.515625 20.414062 26.511719 20.4375 26.492188 C 20.453125 26.464844 20.390625 26.355469 20.289062 26.25 C 20.117188 26.070312 20.0625 25.972656 20.136719 25.972656 C 20.160156 25.972656 20.292969 26.097656 20.4375 26.246094 Z M 27.328125 26.179688 C 27.457031 26.289062 27.433594 26.332031 27.257812 26.304688 C 27.171875 26.292969 27.054688 26.308594 26.996094 26.339844 C 26.9375 26.375 26.847656 26.382812 26.800781 26.367188 C 26.726562 26.335938 26.726562 26.320312 26.828125 26.214844 C 26.953125 26.078125 27.183594 26.0625 27.328125 26.179688 Z M 25.382812 26.507812 C 25.503906 26.652344 25.59375 26.773438 25.578125 26.773438 C 25.542969 26.773438 25.121094 26.324219 25.121094 26.277344 C 25.121094 26.207031 25.152344 26.238281 25.382812 26.507812 Z M 11.171875 26.667969 C 11.1875 26.691406 11.179688 26.71875 11.152344 26.71875 C 11.121094 26.71875 11.09375 26.691406 11.09375 26.667969 C 11.09375 26.632812 11.105469 26.613281 11.113281 26.613281 C 11.128906 26.613281 11.15625 26.632812 11.171875 26.667969 Z M 16.480469 26.71875 C 16.480469 26.746094 16.441406 26.773438 16.394531 26.773438 C 16.351562 26.773438 16.332031 26.746094 16.347656 26.71875 C 16.363281 26.6875 16.398438 26.667969 16.433594 26.667969 C 16.457031 26.667969 16.480469 26.6875 16.480469 26.71875 Z M 24.304688 26.835938 C 24.289062 26.875 24.277344 26.847656 24.277344 26.773438 C 24.277344 26.699219 24.289062 26.671875 24.304688 26.703125 C 24.316406 26.742188 24.316406 26.804688 24.304688 26.835938 Z M 16.175781 26.828125 C 16.191406 26.886719 16.179688 26.921875 16.15625 26.902344 C 16.128906 26.886719 16.105469 26.835938 16.105469 26.792969 C 16.105469 26.6875 16.144531 26.703125 16.175781 26.828125 Z M 27.488281 26.859375 C 27.503906 26.902344 27.5 26.921875 27.464844 26.90625 C 27.433594 26.890625 27.414062 26.851562 27.414062 26.820312 C 27.414062 26.746094 27.449219 26.761719 27.488281 26.859375 Z M 13.8125 26.875 C 13.8125 26.945312 13.664062 26.992188 13.625 26.933594 C 13.609375 26.910156 13.632812 26.875 13.664062 26.863281 C 13.769531 26.820312 13.8125 26.820312 13.8125 26.875 Z M 16.347656 27.359375 L 16.507812 27.386719 L 16.375 27.484375 C 16.257812 27.5625 16.25 27.574219 16.347656 27.578125 C 16.433594 27.585938 16.425781 27.589844 16.320312 27.621094 C 16.164062 27.664062 16.117188 27.574219 16.117188 27.253906 C 16.117188 27.09375 16.121094 27.082031 16.15625 27.199219 C 16.179688 27.289062 16.238281 27.339844 16.347656 27.359375 Z M 15.9375 27.332031 C 15.925781 27.34375 15.855469 27.339844 15.785156 27.324219 L 15.652344 27.285156 L 15.785156 27.253906 C 15.902344 27.222656 15.996094 27.273438 15.9375 27.332031 Z M 16.039062 27.476562 C 16.019531 27.519531 16.003906 27.503906 16.003906 27.445312 C 16 27.386719 16.015625 27.355469 16.03125 27.375 C 16.046875 27.390625 16.054688 27.441406 16.039062 27.476562 Z M 23.519531 27.808594 C 23.519531 27.824219 23.5 27.851562 23.464844 27.867188 C 23.441406 27.882812 23.414062 27.871094 23.414062 27.84375 C 23.414062 27.8125 23.441406 27.785156 23.464844 27.785156 C 23.5 27.785156 23.519531 27.796875 23.519531 27.808594 Z M 21.460938 28.246094 C 21.476562 28.289062 21.398438 28.304688 21.167969 28.289062 C 20.992188 28.277344 20.851562 28.292969 20.851562 28.320312 C 20.851562 28.347656 20.894531 28.355469 20.949219 28.335938 C 20.996094 28.320312 21.023438 28.320312 21.003906 28.339844 C 20.980469 28.367188 20.851562 28.390625 20.714844 28.398438 C 20.492188 28.410156 20.476562 28.40625 20.558594 28.339844 C 20.613281 28.304688 20.761719 28.257812 20.902344 28.238281 C 21.035156 28.21875 21.171875 28.199219 21.199219 28.1875 C 21.308594 28.15625 21.441406 28.1875 21.460938 28.246094 Z M 21.386719 28.59375 C 21.386719 28.617188 21.414062 28.628906 21.445312 28.609375 C 21.488281 28.585938 21.488281 28.609375 21.445312 28.6875 C 21.375 28.816406 21.355469 28.820312 21.300781 28.734375 C 21.273438 28.699219 21.285156 28.691406 21.332031 28.71875 C 21.375 28.746094 21.390625 28.734375 21.375 28.6875 C 21.367188 28.652344 21.296875 28.601562 21.222656 28.582031 C 21.09375 28.542969 21.09375 28.542969 21.242188 28.539062 C 21.324219 28.535156 21.386719 28.558594 21.386719 28.59375 Z M 21.660156 28.675781 C 21.726562 28.761719 21.722656 28.769531 21.644531 28.699219 C 21.550781 28.628906 21.523438 28.585938 21.566406 28.585938 C 21.578125 28.585938 21.621094 28.628906 21.660156 28.675781 Z M 20.785156 28.671875 C 20.769531 28.6875 20.71875 28.691406 20.683594 28.675781 C 20.640625 28.660156 20.65625 28.644531 20.714844 28.644531 C 20.773438 28.640625 20.804688 28.65625 20.785156 28.671875 Z M 21.542969 28.929688 C 21.59375 28.988281 21.578125 29.003906 21.464844 28.992188 C 21.324219 28.988281 21.289062 28.933594 21.402344 28.890625 C 21.433594 28.875 21.472656 28.859375 21.472656 28.859375 C 21.476562 28.851562 21.507812 28.886719 21.542969 28.929688 Z M 20 29.128906 C 20 29.183594 19.996094 29.226562 19.988281 29.230469 C 19.980469 29.230469 19.867188 29.242188 19.734375 29.257812 L 19.492188 29.285156 L 19.703125 29.089844 C 19.910156 28.890625 19.996094 28.902344 20 29.128906 Z M 22.632812 29.753906 C 22.863281 29.984375 23.03125 30.1875 22.996094 30.207031 C 22.917969 30.257812 22.367188 30.257812 21.921875 30.203125 C 21.535156 30.160156 21.519531 30.15625 21.535156 30.027344 C 21.585938 29.636719 21.578125 29.625 21.429688 29.609375 C 21.355469 29.601562 21.082031 29.644531 20.828125 29.703125 L 20.363281 29.8125 L 20.273438 29.695312 C 20.175781 29.578125 20.03125 29.5625 19.632812 29.621094 C 19.523438 29.636719 19.371094 29.621094 19.28125 29.578125 L 19.121094 29.507812 L 19.382812 29.464844 C 19.523438 29.445312 19.8125 29.441406 20.019531 29.449219 C 20.230469 29.464844 20.617188 29.449219 20.878906 29.414062 C 21.148438 29.375 21.550781 29.34375 21.785156 29.339844 L 22.214844 29.332031 Z M 22.632812 29.753906 "/>
<path style=" stroke:none;fill-rule:nonzero;fill:rgb(0%,0%,0%);fill-opacity:1;" d="M 17.921875 15.839844 C 17.921875 15.898438 17.777344 16.222656 17.601562 16.558594 C 17.371094 17.007812 17.308594 17.171875 17.367188 17.171875 C 17.414062 17.171875 17.550781 17.238281 17.683594 17.3125 L 17.921875 17.449219 L 17.921875 17.332031 C 17.921875 17.226562 17.910156 17.222656 17.828125 17.285156 C 17.742188 17.347656 17.738281 17.347656 17.796875 17.273438 C 17.835938 17.226562 17.84375 17.167969 17.824219 17.148438 C 17.800781 17.121094 17.820312 17.121094 17.855469 17.140625 C 17.925781 17.183594 17.925781 17.222656 17.953125 16.332031 C 17.960938 16.003906 17.957031 15.734375 17.945312 15.734375 C 17.929688 15.734375 17.921875 15.78125 17.921875 15.839844 Z M 17.902344 16.652344 C 17.886719 16.691406 17.871094 16.675781 17.871094 16.617188 C 17.867188 16.558594 17.882812 16.527344 17.898438 16.550781 C 17.914062 16.566406 17.921875 16.613281 17.902344 16.652344 Z M 17.902344 16.652344 "/>
<path style=" stroke:none;fill-rule:nonzero;fill:rgb(0%,0%,0%);fill-opacity:1;" d="M 16.65625 17.265625 C 16.613281 17.441406 16.65625 17.460938 16.851562 17.359375 C 17.050781 17.257812 17.039062 17.148438 16.832031 17.148438 C 16.726562 17.140625 16.683594 17.171875 16.65625 17.265625 Z M 16.65625 17.265625 "/>
<path style=" stroke:none;fill-rule:nonzero;fill:rgb(0%,0%,0%);fill-opacity:1;" d="M 15.839844 18.398438 C 15.769531 18.449219 15.769531 18.453125 15.839844 18.453125 C 15.882812 18.453125 15.957031 18.425781 16 18.398438 C 16.070312 18.351562 16.070312 18.347656 16 18.347656 C 15.957031 18.347656 15.882812 18.375 15.839844 18.398438 Z M 15.839844 18.398438 "/>
<path style=" stroke:none;fill-rule:nonzero;fill:rgb(0%,0%,0%);fill-opacity:1;" d="M 16.960938 18.507812 C 16.960938 18.535156 16.910156 18.558594 16.859375 18.558594 C 16.800781 18.558594 16.742188 18.582031 16.726562 18.609375 C 16.710938 18.632812 16.640625 18.644531 16.570312 18.628906 C 16.457031 18.597656 16.457031 18.601562 16.585938 18.703125 C 16.773438 18.851562 16.953125 18.9375 17.609375 19.195312 C 17.921875 19.316406 18.207031 19.457031 18.246094 19.5 C 18.28125 19.546875 18.367188 19.605469 18.433594 19.625 C 18.496094 19.652344 18.640625 19.808594 18.753906 19.972656 C 18.945312 20.265625 18.953125 20.273438 19.011719 20.160156 C 19.066406 20.0625 19.0625 20 18.976562 19.824219 C 18.828125 19.519531 18.675781 19.386719 18.375 19.28125 C 18.230469 19.226562 18.058594 19.140625 18 19.09375 C 17.941406 19.039062 17.710938 18.894531 17.492188 18.773438 C 17.273438 18.644531 17.089844 18.523438 17.078125 18.496094 C 17.050781 18.4375 16.960938 18.441406 16.960938 18.507812 Z M 16.960938 18.507812 "/>
<path style=" stroke:none;fill-rule:nonzero;fill:rgb(0%,0%,0%);fill-opacity:1;" d="M 15.988281 19.914062 C 15.851562 20.015625 15.867188 20.039062 16.121094 20.070312 C 16.394531 20.113281 17.097656 20.335938 17.484375 20.511719 C 17.636719 20.582031 17.777344 20.640625 17.792969 20.640625 C 17.800781 20.640625 17.9375 20.71875 18.078125 20.820312 C 18.425781 21.0625 18.660156 21.113281 18.757812 20.980469 C 18.820312 20.894531 18.8125 20.875 18.710938 20.816406 C 18.640625 20.777344 18.617188 20.753906 18.65625 20.746094 C 18.703125 20.746094 18.710938 20.726562 18.660156 20.644531 C 18.597656 20.542969 18.144531 20.378906 17.914062 20.367188 C 17.75 20.363281 17.375 20.222656 17.515625 20.21875 C 17.574219 20.214844 17.601562 20.199219 17.585938 20.179688 C 17.550781 20.144531 17.417969 20.121094 17.09375 20.085938 C 17.007812 20.074219 16.800781 20.027344 16.640625 19.984375 C 16.160156 19.851562 16.085938 19.84375 15.988281 19.914062 Z M 15.988281 19.914062 "/>
<path style=" stroke:none;fill-rule:nonzero;fill:rgb(0%,0%,0%);fill-opacity:1;" d="M 16.414062 20.945312 C 16.453125 20.960938 16.5 20.953125 16.515625 20.9375 C 16.539062 20.921875 16.507812 20.90625 16.449219 20.910156 C 16.390625 20.910156 16.375 20.929688 16.414062 20.945312 Z M 16.414062 20.945312 "/>
<path style=" stroke:none;fill-rule:nonzero;fill:rgb(0%,0%,0%);fill-opacity:1;" d="M 16.585938 20.960938 C 16.585938 20.988281 16.625 20.996094 16.667969 20.980469 C 16.710938 20.960938 16.746094 20.9375 16.746094 20.929688 C 16.746094 20.917969 16.710938 20.90625 16.667969 20.90625 C 16.625 20.90625 16.585938 20.929688 16.585938 20.960938 Z M 16.585938 20.960938 "/>
<path style=" stroke:none;fill-rule:nonzero;fill:rgb(0%,0%,0%);fill-opacity:1;" d="M 17.28125 21.199219 C 17.28125 21.242188 17.308594 21.28125 17.332031 21.28125 C 17.398438 21.28125 17.382812 21.398438 17.308594 21.449219 C 17.28125 21.472656 17.308594 21.484375 17.371094 21.476562 C 17.535156 21.464844 17.5625 21.347656 17.441406 21.226562 C 17.3125 21.097656 17.28125 21.09375 17.28125 21.199219 Z M 17.28125 21.199219 "/>
<path style=" stroke:none;fill-rule:nonzero;fill:rgb(0%,0%,0%);fill-opacity:1;" d="M 17.652344 21.882812 C 17.652344 22.054688 17.734375 22.15625 17.839844 22.113281 C 17.925781 22.078125 18.078125 22.1875 18.078125 22.28125 C 18.078125 22.308594 18.144531 22.378906 18.222656 22.433594 L 18.375 22.523438 L 18.273438 22.375 C 18.21875 22.289062 18.117188 22.171875 18.046875 22.105469 C 17.980469 22.042969 17.921875 21.960938 17.921875 21.9375 C 17.921875 21.910156 17.863281 21.855469 17.785156 21.824219 C 17.664062 21.769531 17.652344 21.777344 17.652344 21.882812 Z M 17.652344 21.882812 "/>
<path style=" stroke:none;fill-rule:nonzero;fill:rgb(0%,0%,0%);fill-opacity:1;" d="M 14.617188 16.089844 C 14.625 16.207031 14.628906 16.214844 14.652344 16.132812 C 14.667969 16.074219 14.703125 16.011719 14.742188 15.988281 C 14.777344 15.960938 14.769531 15.945312 14.710938 15.945312 C 14.640625 15.945312 14.613281 15.984375 14.617188 16.089844 Z M 14.617188 16.089844 "/>
<path style=" stroke:none;fill-rule:nonzero;fill:rgb(0%,0%,0%);fill-opacity:1;" d="M 15.046875 16.085938 C 15.039062 16.117188 15.078125 16.175781 15.121094 16.214844 C 15.183594 16.265625 15.199219 16.261719 15.199219 16.191406 C 15.199219 16.136719 15.179688 16.113281 15.152344 16.128906 C 15.125 16.148438 15.089844 16.128906 15.078125 16.097656 C 15.054688 16.054688 15.046875 16.046875 15.046875 16.085938 Z M 15.046875 16.085938 "/>
<path style=" stroke:none;fill-rule:nonzero;fill:rgb(0%,0%,0%);fill-opacity:1;" d="M 12.425781 26.207031 C 12.425781 26.21875 12.464844 26.238281 12.507812 26.261719 C 12.550781 26.277344 12.585938 26.265625 12.585938 26.238281 C 12.585938 26.207031 12.550781 26.1875 12.507812 26.1875 C 12.464844 26.1875 12.425781 26.199219 12.425781 26.207031 Z M 12.425781 26.207031 "/>
<path style=" stroke:none;fill-rule:nonzero;fill:rgb(0%,0%,0%);fill-opacity:1;" d="M 12.003906 26.964844 C 12.03125 27.046875 12.042969 27.15625 12.019531 27.222656 C 11.996094 27.308594 12.003906 27.316406 12.054688 27.273438 C 12.121094 27.207031 12.074219 26.828125 11.996094 26.828125 C 11.96875 26.828125 11.972656 26.890625 12.003906 26.964844 Z M 12.003906 26.964844 "/>
<path style=" stroke:none;fill-rule:nonzero;fill:rgb(0%,0%,0%);fill-opacity:1;" d="M 11.683594 27.210938 C 11.710938 27.265625 11.742188 27.308594 11.75 27.308594 C 11.761719 27.308594 11.765625 27.265625 11.769531 27.210938 C 11.777344 27.15625 11.742188 27.109375 11.707031 27.109375 C 11.652344 27.109375 11.648438 27.136719 11.683594 27.210938 Z M 11.683594 27.210938 "/>
<path style=" stroke:none;fill-rule:nonzero;fill:rgb(0%,0%,0%);fill-opacity:1;" d="M 12.019531 27.953125 C 12.003906 27.984375 12.011719 28.03125 12.039062 28.058594 C 12.0625 28.085938 12.085938 28.0625 12.085938 28 C 12.085938 27.878906 12.074219 27.871094 12.019531 27.953125 Z M 12.019531 27.953125 "/>
<path style=" stroke:none;fill-rule:nonzero;fill:rgb(0%,0%,0%);fill-opacity:1;" d="M 12.523438 28.199219 C 12.558594 28.214844 12.609375 28.207031 12.625 28.191406 C 12.644531 28.175781 12.613281 28.160156 12.554688 28.164062 C 12.496094 28.164062 12.480469 28.179688 12.523438 28.199219 Z M 12.523438 28.199219 "/>
<path style=" stroke:none;fill-rule:nonzero;fill:rgb(0%,0%,0%);fill-opacity:1;" d="M 18.8125 4.703125 C 18.921875 4.757812 18.929688 4.769531 18.835938 4.835938 C 18.789062 4.878906 18.777344 4.902344 18.816406 4.878906 C 18.851562 4.859375 18.96875 4.894531 19.082031 4.960938 L 19.28125 5.078125 L 19.128906 4.9375 C 19.050781 4.863281 19.003906 4.800781 19.023438 4.800781 C 19.046875 4.792969 19.007812 4.761719 18.933594 4.71875 C 18.859375 4.675781 18.777344 4.644531 18.746094 4.644531 C 18.71875 4.644531 18.746094 4.671875 18.8125 4.703125 Z M 18.8125 4.703125 "/>
<path style=" stroke:none;fill-rule:nonzero;fill:rgb(0%,0%,0%);fill-opacity:1;" d="M 18.238281 4.960938 C 18.238281 5.011719 18.273438 5.019531 18.558594 5.035156 C 18.742188 5.039062 18.773438 4.988281 18.613281 4.945312 C 18.558594 4.929688 18.5 4.945312 18.496094 4.96875 C 18.480469 5.007812 18.4375 5.007812 18.355469 4.964844 C 18.28125 4.921875 18.238281 4.921875 18.238281 4.960938 Z M 18.238281 4.960938 "/>
<path style=" stroke:none;fill-rule:nonzero;fill:rgb(0%,0%,0%);fill-opacity:1;" d="M 13.441406 7.519531 C 13.441406 7.546875 13.476562 7.574219 13.519531 7.574219 C 13.5625 7.574219 13.601562 7.546875 13.601562 7.519531 C 13.601562 7.488281 13.5625 7.464844 13.519531 7.464844 C 13.476562 7.464844 13.441406 7.488281 13.441406 7.519531 Z M 13.441406 7.519531 "/>
<path style=" stroke:none;fill-rule:nonzero;fill:rgb(0%,0%,0%);fill-opacity:1;" d="M 19.152344 7.820312 C 19.152344 7.878906 19.167969 7.894531 19.183594 7.851562 C 19.199219 7.8125 19.195312 7.765625 19.179688 7.75 C 19.164062 7.726562 19.148438 7.761719 19.152344 7.820312 Z M 19.152344 7.820312 "/>
<path style=" stroke:none;fill-rule:nonzero;fill:rgb(0%,0%,0%);fill-opacity:1;" d="M 14.5 8.996094 C 14.46875 9.035156 14.398438 9.066406 14.351562 9.066406 C 14.277344 9.066406 14.277344 9.078125 14.347656 9.121094 C 14.390625 9.148438 14.398438 9.171875 14.367188 9.171875 C 14.335938 9.171875 14.308594 9.210938 14.308594 9.257812 C 14.308594 9.328125 14.355469 9.339844 14.609375 9.308594 C 14.976562 9.257812 16.15625 9.265625 16.421875 9.3125 C 16.527344 9.332031 16.691406 9.382812 16.792969 9.425781 C 16.890625 9.464844 16.980469 9.488281 16.996094 9.476562 C 17.03125 9.441406 16.757812 9.171875 16.6875 9.171875 C 16.65625 9.171875 16.644531 9.152344 16.660156 9.128906 C 16.675781 9.105469 16.613281 9.097656 16.523438 9.109375 C 16.425781 9.125 16.347656 9.109375 16.320312 9.066406 C 16.292969 9.023438 16.128906 8.992188 15.886719 8.988281 C 15.667969 8.976562 15.441406 8.960938 15.375 8.945312 C 15.308594 8.929688 15.253906 8.933594 15.253906 8.953125 C 15.253906 8.976562 15.167969 8.992188 15.066406 8.988281 C 14.964844 8.988281 14.878906 9.007812 14.878906 9.039062 C 14.878906 9.066406 14.859375 9.0625 14.832031 9.019531 C 14.769531 8.917969 14.574219 8.90625 14.5 8.996094 Z M 14.5 8.996094 "/>
<path style=" stroke:none;fill-rule:nonzero;fill:rgb(0%,0%,0%);fill-opacity:1;" d="M 16.46875 9.050781 C 16.507812 9.066406 16.554688 9.0625 16.570312 9.046875 C 16.59375 9.03125 16.558594 9.011719 16.5 9.019531 C 16.441406 9.019531 16.425781 9.035156 16.46875 9.050781 Z M 16.46875 9.050781 "/>
<path style=" stroke:none;fill-rule:nonzero;fill:rgb(0%,0%,0%);fill-opacity:1;" d="M 14.027344 9.28125 C 14.070312 9.308594 14.132812 9.332031 14.160156 9.332031 C 14.191406 9.332031 14.175781 9.308594 14.132812 9.28125 C 14.089844 9.253906 14.03125 9.226562 14 9.226562 C 13.972656 9.226562 13.984375 9.253906 14.027344 9.28125 Z M 14.027344 9.28125 "/>
<path style=" stroke:none;fill-rule:nonzero;fill:rgb(0%,0%,0%);fill-opacity:1;" d="M 19.503906 10.261719 C 19.417969 10.332031 19.308594 10.421875 19.246094 10.464844 C 19.179688 10.511719 19.15625 10.570312 19.179688 10.652344 L 19.210938 10.773438 L 19.347656 10.667969 C 19.523438 10.523438 19.605469 10.597656 19.648438 10.949219 C 19.707031 11.414062 19.765625 11.398438 19.835938 10.90625 C 19.882812 10.539062 19.882812 10.421875 19.828125 10.308594 C 19.738281 10.117188 19.679688 10.113281 19.503906 10.261719 Z M 19.503906 10.261719 "/>
<path style=" stroke:none;fill-rule:nonzero;fill:rgb(0%,0%,0%);fill-opacity:1;" d="M 14.59375 10.640625 C 14.613281 10.683594 14.632812 10.71875 14.644531 10.71875 C 14.65625 10.71875 14.667969 10.683594 14.667969 10.640625 C 14.667969 10.597656 14.644531 10.558594 14.613281 10.558594 C 14.585938 10.558594 14.574219 10.597656 14.59375 10.640625 Z M 14.59375 10.640625 "/>
<path style=" stroke:none;fill-rule:nonzero;fill:rgb(0%,0%,0%);fill-opacity:1;" d="M 18.921875 10.832031 C 18.828125 10.886719 18.789062 11.039062 18.871094 11.039062 C 18.9375 11.039062 19.019531 11.5 18.980469 11.648438 C 18.945312 11.785156 18.949219 11.792969 19.113281 11.769531 C 19.339844 11.738281 19.519531 11.644531 19.519531 11.550781 C 19.519531 11.460938 19.039062 10.988281 18.949219 10.988281 C 18.910156 10.988281 18.878906 10.960938 18.878906 10.933594 C 18.878906 10.902344 18.910156 10.878906 18.953125 10.878906 C 18.996094 10.878906 19.050781 10.851562 19.066406 10.828125 C 19.109375 10.757812 19.039062 10.761719 18.921875 10.832031 Z M 18.921875 10.832031 "/>
<path style=" stroke:none;fill-rule:nonzero;fill:rgb(0%,0%,0%);fill-opacity:1;" d="M 14.558594 10.875 C 14.558594 10.90625 14.582031 10.945312 14.613281 10.960938 C 14.644531 10.976562 14.652344 10.953125 14.632812 10.910156 C 14.597656 10.816406 14.558594 10.800781 14.558594 10.875 Z M 14.558594 10.875 "/>
<path style=" stroke:none;fill-rule:nonzero;fill:rgb(0%,0%,0%);fill-opacity:1;" d="M 17.011719 11.179688 C 17.011719 11.207031 16.875 11.367188 16.710938 11.535156 C 16.542969 11.703125 16.4375 11.839844 16.46875 11.839844 C 16.507812 11.839844 16.535156 11.8125 16.535156 11.785156 C 16.535156 11.753906 16.570312 11.734375 16.613281 11.734375 C 16.65625 11.734375 16.691406 11.710938 16.691406 11.683594 C 16.691406 11.660156 16.742188 11.617188 16.800781 11.601562 C 16.859375 11.578125 16.894531 11.542969 16.878906 11.515625 C 16.859375 11.488281 16.890625 11.464844 16.945312 11.460938 C 17.003906 11.460938 17.011719 11.449219 16.96875 11.429688 C 16.917969 11.40625 16.921875 11.382812 16.992188 11.300781 C 17.039062 11.242188 17.066406 11.183594 17.050781 11.164062 C 17.03125 11.148438 17.011719 11.152344 17.011719 11.179688 Z M 17.011719 11.179688 "/>
<path style=" stroke:none;fill-rule:nonzero;fill:rgb(0%,0%,0%);fill-opacity:1;" d="M 11.945312 11.894531 C 11.945312 11.957031 11.988281 11.957031 12.132812 11.894531 C 12.230469 11.851562 12.222656 11.84375 12.097656 11.84375 C 12.011719 11.839844 11.945312 11.863281 11.945312 11.894531 Z M 11.945312 11.894531 "/>
<path style=" stroke:none;fill-rule:nonzero;fill:rgb(0%,0%,0%);fill-opacity:1;" d="M 15.273438 12.003906 C 15.257812 12.039062 15.285156 12.101562 15.339844 12.148438 C 15.429688 12.234375 15.429688 12.234375 15.367188 12.148438 C 15.328125 12.101562 15.3125 12.03125 15.332031 12 C 15.347656 11.972656 15.355469 11.945312 15.339844 11.945312 C 15.324219 11.945312 15.296875 11.972656 15.273438 12.003906 Z M 15.273438 12.003906 "/>
<path style=" stroke:none;fill-rule:nonzero;fill:rgb(0%,0%,0%);fill-opacity:1;" d="M 11.777344 12.25 C 11.8125 12.265625 11.863281 12.261719 11.878906 12.246094 C 11.898438 12.230469 11.867188 12.214844 11.808594 12.21875 C 11.75 12.21875 11.734375 12.234375 11.777344 12.25 Z M 11.777344 12.25 "/>
<path style=" stroke:none;fill-rule:nonzero;fill:rgb(0%,0%,0%);fill-opacity:1;" d="M 16.675781 14.164062 C 16.617188 14.238281 16.59375 14.316406 16.609375 14.332031 C 16.625 14.351562 16.640625 14.335938 16.640625 14.296875 C 16.640625 14.261719 16.671875 14.238281 16.710938 14.257812 C 16.746094 14.273438 16.777344 14.230469 16.777344 14.15625 C 16.789062 14 16.792969 14 16.675781 14.164062 Z M 16.675781 14.164062 "/>
<path style=" stroke:none;fill-rule:nonzero;fill:rgb(0%,0%,0%);fill-opacity:1;" d="M 20.480469 14.199219 C 20.484375 14.324219 20.625 14.457031 20.714844 14.421875 C 20.835938 14.375 20.820312 14.332031 20.640625 14.222656 C 20.523438 14.148438 20.480469 14.144531 20.480469 14.199219 Z M 20.480469 14.199219 "/>
<path style=" stroke:none;fill-rule:nonzero;fill:rgb(0%,0%,0%);fill-opacity:1;" d="M 21.003906 14.324219 C 21.066406 14.375 21.121094 14.441406 21.121094 14.484375 C 21.121094 14.523438 21.207031 14.582031 21.300781 14.617188 C 21.402344 14.65625 21.476562 14.703125 21.460938 14.730469 C 21.429688 14.777344 21.679688 14.847656 21.753906 14.804688 C 21.78125 14.789062 21.8125 14.800781 21.824219 14.832031 C 21.835938 14.871094 21.925781 14.902344 22.027344 14.910156 C 22.128906 14.921875 22.261719 14.953125 22.320312 14.980469 C 22.378906 15.007812 22.515625 15.046875 22.625 15.066406 C 22.734375 15.082031 22.859375 15.128906 22.894531 15.171875 C 22.9375 15.210938 22.992188 15.226562 23.019531 15.199219 C 23.046875 15.179688 23.113281 15.179688 23.171875 15.207031 C 23.269531 15.253906 23.269531 15.253906 23.15625 15.230469 C 23.09375 15.222656 23.054688 15.230469 23.070312 15.257812 C 23.089844 15.289062 23.140625 15.308594 23.1875 15.300781 C 23.242188 15.289062 23.371094 15.328125 23.488281 15.375 C 23.601562 15.425781 23.722656 15.464844 23.761719 15.464844 C 23.792969 15.464844 23.839844 15.484375 23.863281 15.503906 C 23.894531 15.542969 24.339844 15.667969 24.441406 15.679688 C 24.464844 15.679688 24.480469 15.644531 24.480469 15.601562 C 24.480469 15.558594 24.4375 15.519531 24.382812 15.519531 C 24.335938 15.519531 23.785156 15.347656 23.171875 15.140625 C 22.554688 14.933594 22.015625 14.757812 21.972656 14.753906 C 21.929688 14.753906 21.882812 14.734375 21.867188 14.71875 C 21.835938 14.6875 21.128906 14.335938 20.988281 14.28125 C 20.894531 14.25 20.894531 14.257812 21.003906 14.324219 Z M 21.003906 14.324219 "/>
<path style=" stroke:none;fill-rule:nonzero;fill:rgb(0%,0%,0%);fill-opacity:1;" d="M 22.761719 15.449219 C 22.800781 15.464844 22.847656 15.460938 22.863281 15.445312 C 22.886719 15.429688 22.851562 15.414062 22.792969 15.417969 C 22.734375 15.417969 22.71875 15.433594 22.761719 15.449219 Z M 22.761719 15.449219 "/>
<path style=" stroke:none;fill-rule:nonzero;fill:rgb(0%,0%,0%);fill-opacity:1;" d="M 22.71875 15.574219 C 22.71875 15.601562 22.757812 15.625 22.800781 15.625 C 22.84375 15.625 22.878906 15.601562 22.878906 15.574219 C 22.878906 15.542969 22.84375 15.519531 22.800781 15.519531 C 22.757812 15.519531 22.71875 15.542969 22.71875 15.574219 Z M 22.71875 15.574219 "/>
<path style=" stroke:none;fill-rule:nonzero;fill:rgb(0%,0%,0%);fill-opacity:1;" d="M 23.371094 25.652344 C 23.371094 25.753906 23.382812 25.796875 23.398438 25.742188 C 23.40625 25.695312 23.40625 25.609375 23.398438 25.558594 C 23.382812 25.507812 23.371094 25.550781 23.371094 25.652344 Z M 23.371094 25.652344 "/>
<path style=" stroke:none;fill-rule:nonzero;fill:rgb(0%,0%,0%);fill-opacity:1;" d="M 23.558594 25.765625 C 23.59375 25.800781 23.636719 25.820312 23.652344 25.800781 C 23.667969 25.785156 23.644531 25.753906 23.589844 25.738281 C 23.515625 25.707031 23.507812 25.710938 23.558594 25.765625 Z M 23.558594 25.765625 "/>
<path style=" stroke:none;fill-rule:nonzero;fill:rgb(0%,0%,0%);fill-opacity:1;" d="M 23.878906 25.851562 C 23.8125 25.914062 23.839844 25.96875 23.921875 25.941406 C 23.960938 25.921875 24 25.886719 24 25.863281 C 24 25.800781 23.925781 25.796875 23.878906 25.851562 Z M 23.878906 25.851562 "/>
<path style=" stroke:none;fill-rule:nonzero;fill:rgb(0%,0%,0%);fill-opacity:1;" d="M 23.433594 26 C 23.414062 26.042969 23.414062 26.117188 23.433594 26.160156 C 23.464844 26.25 23.574219 26.265625 23.574219 26.179688 C 23.574219 26.15625 23.546875 26.144531 23.515625 26.164062 C 23.472656 26.191406 23.460938 26.160156 23.476562 26.058594 C 23.507812 25.910156 23.484375 25.871094 23.433594 26 Z M 23.433594 26 "/>
<path style=" stroke:none;fill-rule:nonzero;fill:rgb(0%,0%,0%);fill-opacity:1;" d="M 23.625 25.972656 C 23.625 26 23.652344 26.027344 23.679688 26.027344 C 23.710938 26.027344 23.734375 26.0625 23.734375 26.105469 C 23.734375 26.191406 23.8125 26.21875 23.855469 26.144531 C 23.871094 26.121094 23.824219 26.0625 23.753906 26.011719 C 23.683594 25.957031 23.625 25.941406 23.625 25.972656 Z M 23.625 25.972656 "/>
<path style=" stroke:none;fill-rule:nonzero;fill:rgb(0%,0%,0%);fill-opacity:1;" d="M 24.054688 26.238281 C 24.054688 26.265625 24.078125 26.292969 24.105469 26.292969 C 24.136719 26.292969 24.160156 26.265625 24.160156 26.238281 C 24.160156 26.207031 24.136719 26.1875 24.105469 26.1875 C 24.078125 26.1875 24.054688 26.207031 24.054688 26.238281 Z M 24.054688 26.238281 "/>
<path style=" stroke:none;fill-rule:nonzero;fill:rgb(0%,0%,0%);fill-opacity:1;" d="M 24.265625 26.261719 C 24.265625 26.308594 24.292969 26.347656 24.320312 26.347656 C 24.351562 26.347656 24.375 26.324219 24.375 26.296875 C 24.375 26.265625 24.351562 26.230469 24.320312 26.214844 C 24.292969 26.199219 24.265625 26.21875 24.265625 26.261719 Z M 24.265625 26.261719 "/>
<path style=" stroke:none;fill-rule:nonzero;fill:rgb(0%,0%,0%);fill-opacity:1;" d="M 23.464844 26.347656 C 23.464844 26.375 23.492188 26.398438 23.523438 26.398438 C 23.550781 26.398438 23.5625 26.375 23.546875 26.347656 C 23.53125 26.316406 23.503906 26.292969 23.488281 26.292969 C 23.476562 26.292969 23.464844 26.316406 23.464844 26.347656 Z M 23.464844 26.347656 "/>
<path style=" stroke:none;fill-rule:nonzero;fill:rgb(0%,0%,0%);fill-opacity:1;" d="M 25.707031 27.070312 C 25.707031 27.140625 25.800781 27.28125 25.835938 27.253906 C 25.84375 27.238281 25.824219 27.179688 25.78125 27.125 C 25.738281 27.066406 25.707031 27.039062 25.707031 27.070312 Z M 25.707031 27.070312 "/>
<path style=" stroke:none;fill-rule:nonzero;fill:rgb(0%,0%,0%);fill-opacity:1;" d="M 26.292969 27.601562 C 26.292969 27.644531 26.324219 27.679688 26.363281 27.679688 C 26.398438 27.679688 26.40625 27.695312 26.375 27.722656 C 26.347656 27.742188 26.316406 27.851562 26.316406 27.957031 C 26.304688 28.132812 26.316406 28.148438 26.40625 28.105469 C 26.457031 28.074219 26.539062 28 26.585938 27.929688 C 26.667969 27.820312 26.660156 27.808594 26.5 27.667969 C 26.304688 27.5 26.292969 27.492188 26.292969 27.601562 Z M 26.59375 27.796875 C 26.617188 27.839844 26.601562 27.84375 26.542969 27.824219 C 26.492188 27.800781 26.453125 27.820312 26.453125 27.851562 C 26.453125 27.882812 26.4375 27.898438 26.421875 27.878906 C 26.382812 27.839844 26.441406 27.734375 26.507812 27.734375 C 26.535156 27.734375 26.570312 27.761719 26.59375 27.796875 Z M 26.59375 27.796875 "/>
</g>
</svg>
