<?xml version="1.0" standalone="no"?>
<!DOCTYPE svg PUBLIC "-//W3C//DTD SVG 20010904//EN"
 "http://www.w3.org/TR/2001/REC-SVG-20010904/DTD/svg10.dtd">
<svg version="1.0" xmlns="http://www.w3.org/2000/svg"
 width="600.000000pt" height="600.000000pt" viewBox="0 0 600.000000 600.000000"
 preserveAspectRatio="xMidYMid meet">

<g transform="translate(0.000000,600.000000) scale(0.100000,-0.100000)"
fill="#000000" stroke="none">
<path d="M2710 5300 c-128 -8 -168 -17 -180 -40 -9 -18 -43 -33 -95 -45 -16
-3 -35 -15 -43 -26 -7 -10 -20 -19 -28 -19 -8 0 -14 -4 -14 -10 0 -5 -9 -10
-19 -10 -11 0 -22 -4 -25 -9 -3 -4 -23 -11 -44 -14 -44 -8 -84 -44 -107 -100
-9 -22 -34 -61 -56 -89 -43 -55 -51 -99 -22 -131 17 -18 16 -21 -6 -59 -18
-32 -20 -42 -10 -49 10 -6 10 -10 0 -23 -7 -9 -17 -14 -21 -11 -11 7 -23 -25
-21 -55 4 -44 34 -144 58 -192 26 -54 46 -169 33 -202 -4 -12 -15 -28 -24 -35
-9 -7 -14 -16 -11 -20 2 -4 -9 -27 -26 -52 -16 -24 -29 -51 -29 -61 0 -9 -6
-18 -12 -21 -10 -3 -10 -7 -2 -18 6 -8 14 -34 18 -59 15 -101 90 -200 161
-215 l30 -6 -32 15 c-23 10 -31 20 -27 30 8 20 13 20 36 -1 17 -15 19 -15 36
0 10 10 36 17 58 18 29 0 34 2 20 8 -19 7 -19 8 1 13 15 4 23 0 26 -13 3 -12
-2 -19 -17 -22 -20 -4 -20 -4 2 -6 16 -1 21 -5 16 -13 -9 -15 21 7 50 36 20
19 20 19 -2 14 -12 -4 -22 -2 -22 4 0 6 12 8 28 5 21 -4 31 -1 41 15 7 11 15
18 18 15 9 -10 -46 -74 -88 -101 -22 -15 -37 -30 -35 -35 3 -4 -7 -7 -22 -5
-15 2 -19 1 -9 -2 9 -3 15 -10 11 -15 -3 -5 2 -16 10 -25 18 -17 21 -60 6 -69
-5 -3 -10 -15 -10 -26 0 -24 -39 -103 -47 -95 -3 3 0 12 7 21 8 9 8 15 2 15
-6 0 -18 -10 -26 -22 l-16 -22 -1 29 c0 26 -2 27 -9 10 -8 -19 -9 -19 -9 2 -1
32 -12 54 -23 47 -7 -4 -9 23 -7 78 l4 84 -32 15 -32 16 5 -31 c3 -17 9 -49
14 -71 10 -51 4 -201 -11 -237 -6 -15 -19 -30 -28 -33 -9 -3 -50 -32 -91 -65
-135 -107 -243 -176 -400 -255 -173 -86 -326 -155 -347 -155 -8 0 -25 -11 -37
-25 -24 -26 -38 -83 -51 -209 -4 -32 -25 -112 -46 -178 -36 -107 -40 -128 -37
-206 3 -111 -20 -449 -33 -482 -5 -14 -9 -53 -8 -85 1 -63 -20 -214 -45 -325
-9 -36 -20 -129 -26 -207 -5 -79 -17 -192 -26 -252 l-16 -109 49 -45 c184
-172 493 -378 730 -488 411 -191 825 -282 1283 -282 225 -1 313 7 530 44 349
60 747 209 1010 377 248 159 387 266 372 285 -18 23 -42 88 -29 80 7 -4 7 0
-2 10 -7 9 -21 17 -30 17 -9 0 -24 7 -34 15 -11 7 -25 11 -32 9 -7 -3 -15 4
-18 16 -3 12 -10 19 -16 16 -12 -8 -52 13 -64 32 -4 6 -15 12 -24 12 -11 0
-13 4 -6 12 5 7 8 25 7 40 -2 21 2 28 14 28 16 1 16 2 0 14 -14 10 -15 15 -5
25 9 10 8 11 -5 6 -11 -4 -18 -18 -18 -31 0 -36 -20 -54 -45 -40 -50 27 -70
56 -41 56 8 0 17 3 19 7 7 11 -50 10 -60 -1 -5 -5 -3 -6 5 -2 7 4 12 1 12 -8
0 -9 -6 -16 -14 -16 -8 0 -17 -6 -19 -12 -3 -7 -6 -1 -6 13 -1 20 -6 25 -23
25 -14 -1 -24 6 -26 18 -3 15 0 18 17 13 14 -3 21 0 21 9 0 8 -6 11 -17 7 -30
-10 -42 -24 -36 -39 3 -9 -1 -14 -12 -14 -9 0 -14 -4 -10 -9 3 -5 1 -12 -5
-16 -6 -3 -10 4 -10 17 0 19 -2 20 -10 8 -8 -11 -9 -8 -4 13 5 23 3 27 -15 27
-20 0 -21 5 -21 108 0 73 3 102 10 92 8 -12 10 -12 11 5 0 14 4 11 12 -12 14
-38 32 -57 25 -27 -4 17 -2 20 13 17 9 -3 20 -11 23 -19 3 -8 12 -11 21 -8 11
5 14 2 9 -10 -7 -19 -30 -21 -37 -3 -3 9 -8 9 -16 1 -10 -9 -6 -13 13 -18 14
-3 26 -11 26 -16 0 -6 5 -10 11 -10 5 0 7 4 4 10 -3 5 -3 15 1 21 8 14 52 -35
60 -67 5 -18 12 -22 34 -19 27 4 42 -10 44 -40 1 -5 11 -11 23 -11 19 -1 21 2
12 18 -6 11 -9 22 -6 24 7 7 82 -96 79 -108 -1 -5 2 -7 8 -3 6 3 10 -4 10 -17
0 -16 3 -19 9 -10 6 11 10 10 15 -3 4 -11 13 -15 26 -12 11 3 20 0 20 -5 0 -6
6 -5 15 2 18 15 28 8 93 -58 23 -24 47 -40 52 -37 6 3 7 -1 4 -9 -4 -11 0 -16
11 -16 10 0 14 5 10 13 -4 6 0 4 8 -5 18 -22 50 -23 68 -2 10 13 10 17 -2 25
-8 5 -18 9 -23 9 -17 0 -141 64 -160 83 -21 19 -21 19 14 2 19 -10 37 -21 40
-24 9 -11 113 -51 133 -51 16 0 -31 43 -66 62 -22 10 -36 22 -33 25 3 3 37
-11 75 -31 38 -20 74 -36 79 -36 6 0 22 15 36 32 l25 33 -34 131 c-33 130 -41
150 -123 309 -34 67 -47 111 -76 255 -20 96 -38 185 -41 198 -5 22 -6 22 -52
-13 -25 -19 -51 -35 -57 -35 -13 1 45 50 58 50 12 0 35 32 36 50 0 8 -7 28
-16 45 -9 19 -19 78 -25 160 -11 150 -16 182 -53 288 -14 42 -26 84 -26 92 0
8 -4 15 -9 15 -5 0 -11 14 -13 32 -4 28 -4 29 8 13 11 -15 13 -9 9 43 -2 33
-8 69 -13 79 -15 28 -62 207 -63 239 0 16 -7 52 -15 79 l-13 50 3 -92 c3 -74
1 -93 -10 -93 -8 0 -14 -6 -15 -12 0 -7 -4 -4 -9 7 -12 28 -12 37 0 30 16 -10
12 2 -7 20 -13 13 -17 36 -17 96 -1 43 -4 79 -7 79 -4 0 -10 -35 -14 -78 -4
-43 -10 -94 -15 -113 -7 -30 -7 -29 -7 19 0 34 -4 57 -12 62 -10 6 -9 10 4 18
17 9 16 10 -6 18 -13 4 -37 6 -53 5 -15 -2 -26 1 -23 6 3 4 -6 9 -20 10 -37 2
-143 26 -143 33 0 3 -14 5 -32 5 -28 0 -33 4 -43 36 -6 22 -15 34 -23 31 -10
-3 -10 -7 0 -19 7 -8 13 -21 14 -29 3 -16 -35 -12 -103 11 -29 10 -33 14 -17
18 16 4 16 5 2 6 -10 0 -18 6 -18 12 0 6 -9 8 -20 4 -13 -4 -22 -1 -26 8 -3 9
-13 13 -24 10 -14 -4 -18 1 -16 21 1 20 5 25 20 20 11 -4 16 -2 12 4 -3 5 -15
12 -26 15 -11 3 -18 2 -16 -2 3 -4 1 -13 -4 -20 -6 -10 -10 -8 -15 8 -4 12
-12 20 -18 18 -14 -4 -42 21 -33 30 7 7 -13 33 -25 33 -5 0 -9 -12 -9 -26 0
-18 -4 -25 -14 -21 -7 3 -19 0 -25 -6 -8 -8 -11 -4 -11 16 0 17 -5 27 -15 27
-18 0 -20 20 -2 20 7 1 4 7 -7 15 -13 10 -17 23 -14 42 2 18 -2 35 -12 46 -16
16 -115 62 -135 63 -5 0 -28 5 -50 11 -22 6 -60 14 -84 17 -25 3 -49 10 -53
14 -13 13 3 72 22 85 13 7 16 16 10 31 -23 63 -30 99 -30 155 0 40 -4 60 -10
56 -7 -4 -8 -36 -5 -84 5 -65 3 -78 -10 -78 -8 0 -15 7 -15 14 0 8 4 12 9 9 4
-3 6 6 3 19 -2 14 -8 23 -12 20 -13 -8 -20 -78 -8 -92 8 -10 7 -13 -5 -13 -10
0 -14 -7 -10 -22 4 -19 3 -20 -6 -8 -8 12 -11 3 -12 -35 0 -34 -3 -44 -8 -31
-7 18 -8 18 -14 2 -4 -10 -5 -21 -2 -26 3 -4 -2 -11 -10 -14 -9 -3 -18 1 -21
8 -9 22 -35 29 -32 8 2 -9 -2 -16 -8 -15 -7 1 -10 -6 -7 -16 3 -10 0 -22 -7
-26 -7 -4 -10 -1 -8 10 2 10 -3 20 -9 22 -7 3 -13 0 -13 -7 0 -6 -5 -8 -11 -5
-6 4 -9 0 -7 -11 2 -11 -2 -18 -9 -16 -7 1 -13 -5 -13 -13 0 -8 -4 -15 -10
-15 -5 0 -10 -6 -10 -14 0 -7 -9 -16 -21 -19 -12 -3 -18 -10 -15 -15 3 -6 0
-12 -6 -15 -10 -3 -9 -8 2 -22 9 -11 10 -16 3 -11 -8 4 -13 2 -13 -6 0 -9 -3
-9 -10 2 -7 11 -10 12 -10 2 0 -8 -6 -12 -12 -10 -12 4 -30 59 -28 86 2 38 5
50 12 46 10 -7 27 60 16 67 -5 3 -6 12 -3 21 7 18 -10 33 -48 42 -16 4 -49 27
-73 53 -25 25 -46 44 -48 42 -1 -2 -13 -21 -26 -42 -23 -39 -28 -40 -74 -22
-17 7 -17 6 -3 -22 10 -19 12 -34 6 -44 -5 -8 -9 -10 -9 -5 0 6 -7 1 -15 -10
-14 -18 -14 -18 -15 6 -1 23 -2 23 -10 5 -8 -18 -9 -18 -9 -2 -1 10 -7 20 -15
23 -20 8 -5 56 21 69 32 16 53 36 52 49 0 7 -2 6 -6 -1 -2 -7 -14 -13 -25 -13
-17 0 -18 2 -8 15 11 13 10 14 -4 9 -9 -3 -23 0 -32 7 -22 18 -96 15 -125 -4
-13 -9 -28 -26 -35 -38 -11 -21 -12 -21 -50 20 -41 43 -73 52 -94 26 -12 -15
-30 -12 -30 5 0 5 7 16 16 24 11 12 20 13 34 6 26 -14 48 -13 47 3 -3 30 16
154 26 172 6 11 10 26 9 32 -3 14 57 72 75 73 6 0 24 -21 39 -47 17 -29 29
-42 32 -34 3 8 -2 19 -10 25 -7 6 -20 25 -27 43 -8 19 -24 36 -40 42 -24 9
-24 9 -3 10 12 1 22 7 22 16 0 22 18 18 25 -5 4 -14 15 -20 35 -20 22 0 33 -7
45 -30 16 -32 20 -54 5 -30 -5 8 -12 11 -15 8 -4 -4 0 -17 9 -30 11 -15 16
-18 17 -8 1 8 5 4 10 -10 8 -24 8 -24 6 5 -2 28 1 30 36 33 26 2 37 -1 37 -11
0 -10 11 -12 48 -7 63 9 202 60 202 74 0 6 20 18 46 25 47 14 75 34 73 54 0 9
-2 9 -5 1 -6 -14 -42 -7 -64 12 -8 7 -27 16 -42 19 -21 5 -27 12 -24 28 1 12
9 23 16 25 7 3 10 0 6 -7 -5 -7 -1 -9 8 -5 24 9 19 22 -16 41 -27 15 -58 18
-168 18 -123 0 -139 -2 -182 -24 -27 -14 -48 -28 -48 -33 0 -4 -8 -8 -17 -8
-25 0 32 46 72 59 25 8 16 10 -45 9 -41 0 -81 -5 -88 -11 -7 -5 -30 -7 -54 -3
-23 4 -72 4 -109 0 l-68 -6 52 -27 c43 -22 53 -31 55 -56 l3 -30 -25 36 c-18
27 -40 41 -86 58 -36 13 -72 20 -86 17 -13 -4 -24 -2 -24 2 0 5 55 12 122 16
78 4 125 11 130 19 5 8 -1 14 -15 18 -15 3 -21 11 -19 25 1 11 -7 29 -18 39
-11 10 -20 14 -20 9 0 -5 -5 -2 -10 6 -8 12 -10 11 -10 -7 0 -13 -4 -23 -10
-23 -5 0 -10 5 -10 10 0 6 -7 10 -15 10 -8 0 -15 9 -15 20 0 11 -3 19 -7 19
-20 -3 -26 2 -13 11 13 8 12 10 -4 10 -14 0 -17 5 -12 24 3 14 2 28 -4 31 -18
11 -10 51 15 75 17 16 21 26 14 31 -7 4 -3 9 11 14 17 6 19 9 9 16 -11 6 -11
11 -2 20 7 7 9 24 6 40 -4 22 -2 29 11 29 9 0 16 6 16 14 0 21 48 48 88 49 19
1 30 3 23 5 -20 7 -12 27 17 39 15 7 44 28 65 47 67 62 114 77 236 72 58 -2
115 -7 126 -11 16 -6 17 -5 5 4 -12 9 -11 11 9 11 17 0 22 -4 17 -16 -5 -13 0
-15 34 -9 33 6 52 1 117 -30 43 -20 87 -39 97 -41 11 -2 23 -9 27 -15 4 -7 16
-9 27 -7 16 4 19 2 15 -10 -5 -12 -1 -14 15 -10 14 4 20 2 15 -5 -4 -6 2 -8
15 -5 15 4 22 2 22 -8 0 -8 8 -14 18 -15 10 0 12 -3 5 -6 -23 -9 -15 -43 9
-43 21 0 21 0 2 15 -18 14 -18 14 9 15 21 0 27 -5 28 -22 0 -22 1 -22 9 -3 8
17 9 16 11 -10 4 -61 0 -107 -8 -87 -2 6 -8 10 -13 7 -4 -3 -11 12 -15 32 -4
25 -9 32 -15 23 -9 -14 -5 -99 6 -139 6 -19 4 -23 -8 -18 -12 4 -15 -1 -14
-26 1 -23 -3 -31 -13 -29 -11 2 -11 -2 3 -20 30 -42 35 -67 37 -183 1 -75 5
-120 13 -128 10 -9 -5 -12 -67 -13 -43 -1 -84 -7 -90 -13 -6 -6 -28 -11 -49
-11 -21 0 -38 -4 -38 -10 0 -15 64 -12 132 6 33 8 62 13 65 11 2 -3 -12 -15
-32 -27 -20 -13 -65 -47 -98 -76 -52 -44 -63 -50 -69 -36 -6 15 -7 14 -8 -3
-2 -11 -2 -23 -1 -27 0 -5 -4 -8 -9 -8 -6 0 -10 -5 -10 -11 0 -6 23 9 51 33
86 73 132 108 171 128 37 20 37 20 51 0 13 -19 14 -19 42 10 23 24 25 30 12
30 -9 0 -17 4 -17 9 0 6 15 7 33 4 27 -4 43 2 81 28 48 34 48 34 42 79 -4 30
0 65 10 100 9 30 16 68 16 85 -1 26 -18 73 -33 85 -3 3 -18 23 -33 45 -16 22
-25 31 -21 20 7 -23 8 -25 6 -42 -2 -22 -51 8 -52 31 0 12 -3 16 -5 10 -3 -7
-14 -10 -24 -7 -15 4 -20 14 -20 39 0 40 21 46 39 12 8 -15 10 -16 6 -4 -5 18
-4 18 21 1 25 -16 26 -16 19 5 -6 20 -5 21 17 9 34 -19 50 -20 44 -3 -3 9 -2
12 5 9 6 -4 8 -12 6 -19 -3 -7 6 -23 20 -36 15 -14 23 -31 20 -42 -3 -10 -1
-16 4 -12 5 3 9 0 9 -5 0 -6 3 -11 8 -11 4 0 7 11 7 24 0 13 -4 22 -9 18 -5
-3 -6 2 -3 12 4 10 3 15 -3 11 -14 -9 -13 8 2 23 8 8 8 15 -2 27 -9 10 -13 38
-11 75 1 37 -3 69 -13 88 -8 16 -20 67 -25 112 -13 97 -37 141 -93 171 -39 20
-76 27 -48 9 12 -8 10 -10 -10 -11 -14 -1 -33 -1 -43 -1 -10 1 -15 -2 -12 -8
4 -6 -1 -7 -12 -3 -12 4 -9 -4 12 -26 29 -31 27 -31 -32 10 -35 23 -65 40 -69
37 -3 -4 11 -16 33 -26 21 -11 43 -29 49 -39 10 -16 2 -14 -45 10 -31 15 -64
26 -75 23 -10 -3 -32 2 -48 10 -16 8 -34 12 -41 8 -7 -4 -9 -4 -5 0 4 5 -14
19 -40 33 -26 13 -56 34 -68 47 -11 13 -27 26 -35 29 -10 4 -10 6 -1 6 12 1
53 -19 120 -59 37 -23 43 -17 10 10 -32 25 -14 38 23 16 63 -37 84 -45 93 -36
5 5 16 4 27 -3 15 -9 22 -8 36 8 12 12 12 15 3 7 -13 -9 -22 -7 -44 7 -19 13
-24 20 -14 24 7 3 4 6 -9 6 -26 1 -75 21 -85 36 -4 5 -8 6 -8 2 0 -5 -16 0
-36 12 -19 12 -39 21 -45 21 -5 0 -17 7 -26 15 -97 85 -147 93 -433 75z m215
-150 c-3 -5 3 -6 13 -3 10 2 29 -7 45 -21 28 -26 23 -34 -11 -17 -9 4 -30 13
-47 18 -16 6 -38 14 -48 18 -13 5 -16 3 -12 -7 4 -9 0 -15 -9 -15 -16 0 -17
14 -2 32 10 12 79 7 71 -5z m-102 -46 c-6 -16 -33 -19 -33 -4 0 6 -7 10 -15
10 -9 0 -12 -6 -8 -17 6 -15 5 -16 -9 -3 -9 8 -12 17 -7 18 6 2 4 11 -3 20
-11 13 -11 15 3 10 9 -3 22 -2 30 2 17 11 50 -16 42 -36z m212 26 c3 -6 -1 -7
-9 -4 -18 7 -21 14 -7 14 6 0 13 -4 16 -10z m98 -58 c16 -15 17 -14 11 1 -6
15 -2 15 37 -2 24 -11 46 -29 51 -40 4 -12 12 -21 18 -21 5 0 10 -4 10 -8 0
-4 -9 -8 -20 -8 -11 0 -20 6 -20 13 0 7 -5 13 -11 13 -5 0 -7 -5 -3 -11 3 -6
-5 -3 -19 6 -15 9 -32 13 -38 9 -7 -4 -9 -3 -6 4 7 10 -18 35 -73 75 -24 17
-24 17 10 1 19 -9 43 -23 53 -32z m-542 -7 c3 2 5 -7 5 -20 0 -14 -4 -25 -9
-25 -5 0 -6 7 -3 15 3 9 -1 18 -9 21 -8 4 -15 11 -15 16 0 7 5 6 13 -1 8 -6
16 -9 18 -6z m484 -3 c-3 -3 -11 0 -18 7 -9 10 -8 11 6 5 10 -3 15 -9 12 -12z
m-398 -17 c0 -8 -4 -12 -9 -9 -4 3 -8 9 -8 15 0 5 4 9 8 9 5 0 9 -7 9 -15z
m68 5 c3 -5 1 -10 -4 -10 -6 0 -11 5 -11 10 0 6 2 10 4 10 3 0 8 -4 11 -10z
m-178 -6 c-3 -3 -12 -4 -19 -1 -8 3 -5 6 6 6 11 1 17 -2 13 -5z m550 0 c-3 -3
-12 -4 -19 -1 -8 3 -5 6 6 6 11 1 17 -2 13 -5z m-597 -14 c0 -5 -2 -10 -4 -10
-3 0 -8 5 -11 10 -3 6 -1 10 4 10 6 0 11 -4 11 -10z m-387 -116 c8 -8 -26 -73
-39 -74 -14 0 -5 62 10 72 14 9 21 10 29 2z m97 -706 c-36 -5 -83 -17 -104
-28 -47 -23 -62 -19 -17 4 40 21 96 34 146 34 29 0 23 -3 -25 -10z m1437 -10
c-3 -8 -6 -5 -6 6 -1 11 2 17 5 13 3 -3 4 -12 1 -19z m-1040 6 c-3 -3 -12 -4
-19 -1 -8 3 -5 6 6 6 11 1 17 -2 13 -5z m53 -105 c0 -19 -4 -20 -52 -14 -30 4
-65 2 -80 -4 -21 -8 -28 -8 -28 2 0 8 24 13 73 15 39 2 74 8 75 13 6 16 12 10
12 -12z m-529 -292 c-6 -8 -9 -16 -6 -19 3 -2 -2 -5 -10 -5 -13 0 -13 3 2 19
19 21 31 25 14 5z m116 -3 c-3 -3 -12 -4 -19 -1 -8 3 -5 6 6 6 11 1 17 -2 13
-5z m1173 -274 c5 9 8 4 7 -12 -1 -13 -8 -25 -15 -25 -7 0 -11 6 -8 14 3 7 1
13 -4 13 -5 0 -6 8 -2 18 6 16 7 16 10 -2 3 -14 6 -16 12 -6z m-363 -126 c0
-36 -25 -2 -65 91 -3 6 11 -9 30 -33 19 -24 35 -50 35 -58z m330 29 c-2 -16
-4 -5 -4 22 0 28 2 40 4 28 2 -13 2 -35 0 -50z m-437 37 c0 -5 -2 -10 -4 -10
-3 0 -8 5 -11 10 -3 6 -1 10 4 10 6 0 11 -4 11 -10z m48 -25 c-3 -3 -9 2 -12
12 -6 14 -5 15 5 6 7 -7 10 -15 7 -18z m22 -31 c0 -8 -19 -13 -24 -6 -3 5 1 9
9 9 8 0 15 -2 15 -3z m-478 -33 c7 20 58 2 58 -21 0 -12 -5 -17 -14 -14 -8 3
-35 6 -62 7 -30 1 -49 7 -52 16 -3 8 0 11 6 7 5 -3 13 1 16 10 6 15 8 15 25 0
14 -12 20 -14 23 -5z m148 -16 c0 -16 -55 -22 -64 -6 -8 13 5 21 36 21 18 0
28 -5 28 -15z m55 -3 c0 -18 -20 -15 -23 4 -3 10 1 15 10 12 7 -3 13 -10 13
-16z m783 -50 c64 -65 133 -171 136 -207 0 -13 4 -21 9 -18 10 6 9 -39 -2 -55
-6 -10 -11 -5 -21 17 -7 17 -26 46 -42 64 -17 17 -27 26 -23 19 6 -11 3 -12
-14 -3 -11 7 -21 16 -21 21 0 6 -7 10 -15 10 -8 0 -20 9 -27 20 -7 11 -19 20
-26 20 -7 0 -17 11 -24 25 -6 13 -15 22 -21 18 -6 -4 -8 3 -3 18 8 28 13 55
15 87 2 34 17 27 79 -36z m135 42 c-8 -4 -9 -15 -2 -37 5 -18 9 -41 8 -52 0
-15 -4 -13 -14 11 -8 17 -17 43 -21 58 -5 23 -3 26 17 25 13 0 19 -3 12 -5z
m-833 -38 c0 -5 -3 -6 -7 -3 -3 4 -12 2 -18 -3 -8 -7 -21 -6 -40 4 -28 15 -28
15 19 13 25 -1 46 -6 46 -11z m900 -11 c13 -14 21 -25 18 -25 -2 0 -15 11 -28
25 -13 14 -21 25 -18 25 2 0 15 -11 28 -25z m-965 -23 c1 -12 -4 -22 -11 -22
-18 0 -25 15 -18 35 9 22 27 14 29 -13z m152 -4 c15 -7 29 -13 31 -14 1 0 0
-9 -4 -18 -8 -20 -21 -21 -26 -1 -2 10 -7 7 -15 -10 -10 -22 -9 -25 8 -25 23
0 24 2 -3 -57 -25 -56 -25 -57 -27 -83 0 -11 -8 -20 -17 -20 -8 0 -12 5 -9 10
3 6 -3 10 -14 10 -12 0 -21 5 -21 11 0 6 9 9 20 6 11 -3 20 -1 20 4 0 5 -8 10
-17 10 -17 1 -17 2 0 6 18 5 23 18 8 27 -5 4 -12 0 -15 -6 -8 -17 2 34 11 58
5 13 3 16 -10 11 -13 -5 -14 -2 -5 26 14 42 18 45 19 16 1 -77 3 -88 10 -83 5
3 10 -5 10 -18 1 -20 2 -21 6 -3 3 11 10 23 17 27 7 5 5 8 -5 8 -12 0 -18 12
-22 43 -3 23 -2 44 4 45 5 2 9 10 9 18 0 17 2 17 37 2z m178 2 c3 -5 1 -10 -4
-10 -6 0 -11 5 -11 10 0 6 2 10 4 10 3 0 8 -4 11 -10z m-295 -33 c0 -19 -27
-53 -35 -45 -4 4 1 18 12 32 21 29 23 31 23 13z m1015 3 c3 -5 2 -10 -4 -10
-5 0 -13 5 -16 10 -3 6 -2 10 4 10 5 0 13 -4 16 -10z m-852 -20 c-6 -22 -23
-38 -23 -21 0 17 12 41 20 41 5 0 6 -9 3 -20z m714 -22 c-3 -7 -5 -2 -5 12 0
14 2 19 5 13 2 -7 2 -19 0 -25z m-927 12 c0 -5 -7 -10 -16 -10 -8 0 -12 5 -9
10 3 6 10 10 16 10 5 0 9 -4 9 -10z m61 -17 c-12 -20 -14 -14 -5 12 4 9 9 14
11 11 3 -2 0 -13 -6 -23z m601 -80 c3 -127 -2 -235 -13 -339 l-10 -90 75 -79
c51 -53 82 -96 95 -129 48 -125 81 -219 81 -230 0 -14 -41 -36 -65 -36 -23 0
-19 -14 42 -133 53 -103 65 -120 162 -212 161 -153 230 -225 216 -225 -7 0 56
-89 68 -97 12 -7 -22 46 -47 75 -11 13 -14 22 -7 22 10 0 40 -26 199 -171 30
-28 63 -71 76 -99 13 -27 27 -46 31 -42 4 4 4 -4 0 -17 -6 -20 -4 -23 9 -18 9
4 16 2 16 -3 0 -6 -4 -10 -10 -10 -6 0 -10 -28 -10 -62 -1 -105 -22 -181 -71
-253 -45 -66 -62 -81 -82 -68 -26 16 -56 13 -67 -7 -9 -16 -15 -18 -30 -10
-27 15 -37 12 -43 -10 -4 -16 -14 -20 -52 -20 -25 0 -54 -4 -64 -9 -13 -7 -33
0 -80 30 l-64 40 28 29 c15 16 25 35 22 43 -4 10 0 13 11 10 26 -6 109 54 152
111 48 63 66 105 85 197 17 80 19 117 5 82 -5 -13 -15 -23 -22 -23 -7 0 -38
33 -68 74 -74 98 -123 135 -197 146 -32 5 -76 14 -98 20 -22 6 -52 14 -67 18
-14 4 -44 24 -67 45 -22 20 -44 37 -49 37 -6 0 -17 11 -26 25 -21 31 -52 36
-36 5 6 -12 8 -29 5 -40 -5 -15 -2 -17 16 -13 14 4 20 2 16 -5 -10 -14 2 -42
18 -42 7 0 15 -11 17 -25 4 -20 1 -25 -16 -26 -11 0 -15 -3 -8 -6 10 -4 10 -8
0 -21 -11 -13 -10 -15 5 -9 14 5 18 3 15 -11 -2 -12 -11 -16 -27 -14 -31 5
-101 49 -101 64 0 6 10 3 22 -8 l22 -19 -20 27 c-10 14 -21 26 -24 26 -19 -1
-23 4 -10 12 9 6 11 13 5 18 -14 10 -30 37 -70 117 -25 51 -31 71 -22 77 9 6
9 8 -2 8 -7 0 -11 6 -8 13 2 6 -2 18 -9 25 -9 8 -14 9 -14 2 0 -6 -5 -8 -11
-5 -6 4 -8 14 -5 22 3 8 1 11 -4 8 -6 -3 -10 -1 -10 4 0 6 4 11 8 11 5 0 17 7
28 16 18 14 17 15 -18 9 -31 -5 -42 -1 -81 32 -51 43 -55 49 -29 57 9 3 5 4
-10 2 -16 -2 -28 1 -28 6 0 4 -11 6 -24 2 -19 -4 -26 -1 -31 15 -4 14 -15 21
-32 21 -37 0 -131 49 -138 72 -5 13 -11 16 -18 10 -27 -21 -181 -40 -191 -24
-9 15 13 27 104 58 56 19 77 30 63 32 -13 2 -23 7 -23 11 0 18 81 62 170 93
l95 33 -71 7 c-85 9 -123 22 -130 45 -11 38 -21 46 -51 47 -34 1 -44 -14 -47
-64 -1 -19 -6 -25 -23 -25 -13 0 -23 4 -22 10 1 16 -41 26 -64 14 -12 -5 -5 5
16 23 46 41 189 118 219 118 22 1 22 1 4 15 -11 8 -41 18 -68 21 -51 7 -57 14
-33 34 8 7 12 16 9 21 -3 5 7 21 21 35 25 25 31 26 87 20 45 -6 58 -4 53 5 -6
9 3 10 36 5 44 -6 44 -6 44 24 0 16 -4 30 -8 30 -4 0 -3 9 3 21 7 12 18 18 26
15 7 -3 13 -2 11 2 -7 21 148 186 166 176 7 -4 9 -4 5 1 -4 4 14 29 40 56 77
78 85 90 94 136 15 69 28 50 30 -44z m-689 57 c3 -11 1 -20 -4 -20 -5 0 -9 9
-9 20 0 11 2 20 4 20 2 0 6 -9 9 -20z m1237 -11 c0 -5 -4 -9 -10 -9 -5 0 -10
7 -10 16 0 8 5 12 10 9 6 -3 10 -10 10 -16z m-1173 -81 c3 6 9 10 13 7 5 -3 7
-12 3 -20 -3 -10 1 -15 12 -15 9 0 13 -4 10 -10 -3 -5 1 -10 9 -10 9 0 16 -8
16 -19 0 -11 5 -21 11 -23 5 -2 7 -11 3 -22 -5 -14 -9 -15 -16 -4 -7 9 -8 7
-5 -9 5 -23 -9 -33 -39 -29 -11 2 -23 -2 -27 -8 -5 -6 -7 -1 -6 14 2 42 0 50
-17 50 -9 0 -14 -6 -11 -12 2 -7 10 -12 16 -10 7 1 10 -2 7 -6 -3 -5 -18 -8
-33 -6 -15 1 -31 -3 -35 -9 -11 -17 -10 20 1 41 13 26 2 82 -18 82 -13 0 -13
2 -2 9 7 5 11 13 7 19 -4 6 5 6 25 -1 27 -11 32 -10 41 7 11 19 12 19 21 -5 5
-14 11 -19 14 -11z m258 21 c11 -17 -1 -21 -15 -4 -8 9 -8 15 -2 15 6 0 14 -5
17 -11z m1115 -45 c0 -2 -7 -4 -15 -4 -8 0 -15 4 -15 10 0 5 7 7 15 4 8 -4 15
-8 15 -10z m-23 -20 c-3 -3 -12 -4 -19 -1 -8 3 -5 6 6 6 11 1 17 -2 13 -5z
m202 -10 c34 -7 42 -24 11 -24 -11 0 -20 4 -20 9 0 5 -10 12 -22 14 -13 2 -18
5 -12 6 6 0 26 -2 43 -5z m-1674 -14 c3 -5 1 -10 -4 -10 -6 0 -11 5 -11 10 0
6 2 10 4 10 3 0 8 -4 11 -10z m1810 -21 c15 -7 12 -8 -12 -3 -21 3 -33 1 -33
-5 0 -6 5 -11 11 -11 5 0 8 -4 4 -10 -7 -11 -44 21 -38 33 6 10 43 8 68 -4z
m58 -6 c-7 -2 -19 -2 -25 0 -7 3 -2 5 12 5 14 0 19 -2 13 -5z m-37 -40 c-4 -4
-12 -1 -19 7 -9 10 -9 11 1 6 7 -4 12 -2 13 6 0 11 2 11 6 0 3 -7 2 -16 -1
-19z m-809 -29 c-3 -3 -12 -4 -19 -1 -8 3 -5 6 6 6 11 1 17 -2 13 -5z m13 -46
c0 -2 -7 -21 -15 -43 l-14 -40 -1 43 c0 31 4 42 15 42 8 0 15 -1 15 -2z m856
-75 c-10 -26 -18 -8 -9 23 5 21 8 24 11 11 2 -10 1 -25 -2 -34z m107 -39 c-8
-21 -33 -17 -33 5 0 14 5 18 19 14 12 -3 17 -11 14 -19z m-973 0 c0 -8 -5 -12
-10 -9 -6 4 -8 11 -5 16 9 14 15 11 15 -7z m1013 -51 c4 -19 2 -33 -3 -33 -6
0 -10 17 -10 37 0 43 5 41 13 -4z m-996 -10 c2 -6 -3 -13 -12 -16 -10 -5 -15
0 -15 14 0 21 21 22 27 2z m953 -33 c0 -5 -4 -10 -10 -10 -5 0 -10 5 -10 10 0
6 5 10 10 10 6 0 10 -4 10 -10z m73 -197 c-7 -3 -13 -12 -13 -20 0 -9 -2 -14
-5 -11 -4 3 -3 18 1 33 5 20 9 24 18 14 8 -8 8 -13 -1 -16z m78 -278 c5 4 9 0
9 -7 0 -10 -11 -12 -39 -10 l-40 4 27 23 c26 23 27 23 30 4 2 -11 8 -17 13
-14z m-1074 -37 c-3 -8 -6 -5 -6 6 -1 11 2 17 5 13 3 -3 4 -12 1 -19z m1073
-12 c0 -2 -7 -9 -15 -16 -13 -11 -14 -10 -9 4 5 14 24 23 24 12z m-1900 -57
c0 -25 -31 -38 -106 -44 -65 -5 -75 -4 -59 6 10 7 40 12 65 11 25 -1 52 2 60
8 13 9 13 10 0 11 -10 0 -8 3 5 9 28 12 35 12 35 -1z m42 -18 c7 11 11 11 15
2 2 -7 11 -13 19 -13 9 0 12 5 9 10 -3 6 1 10 10 10 9 0 13 -4 10 -10 -3 -5
-1 -10 6 -10 8 0 9 -3 4 -9 -14 -13 -88 1 -91 17 -2 8 0 8 3 1 4 -8 8 -7 15 2z
m1899 -172 c-13 -11 -27 -17 -30 -13 -3 4 0 9 7 11 7 3 18 11 25 18 7 7 14 11
17 8 3 -3 -6 -13 -19 -24z m-66 -19 c-3 -5 -16 -10 -28 -9 -20 1 -20 2 3 9 14
4 26 8 28 9 2 1 0 -3 -3 -9z m-172 -77 c-7 -2 -19 -2 -25 0 -7 3 -2 5 12 5 14
0 19 -2 13 -5z m-1817 -88 c4 -11 2 -21 -5 -23 -6 -2 -11 -10 -11 -18 0 -10
-10 -14 -31 -12 -39 3 -46 14 -18 28 15 9 18 15 10 23 -18 18 -13 24 19 23 21
-1 32 -7 36 -21z m-76 -15 c0 -5 -4 -10 -10 -10 -5 0 -10 5 -10 10 0 6 5 10
10 10 6 0 10 -4 10 -10z m120 -38 c0 -13 -12 -22 -22 -16 -10 6 -1 24 13 24 5
0 9 -4 9 -8z m-142 -67 c25 -8 63 -82 48 -94 -6 -5 -17 -6 -24 -2 -16 10 -62
2 -82 -13 -13 -10 -22 -11 -54 -7 -5 0 -3 8 4 16 6 8 9 18 7 22 -3 5 2 24 11
43 12 25 13 35 4 38 -22 7 -12 24 11 19 12 -4 29 -2 37 3 11 7 16 5 18 -5 2
-8 11 -17 20 -20z m142 7 c11 -153 11 -177 -1 -198 -9 -18 -15 -21 -26 -13 -7
6 -13 20 -13 30 0 11 -3 19 -7 19 -5 0 -8 14 -8 32 0 25 5 33 28 41 20 6 27
15 27 33 0 31 -20 22 -21 -9 0 -12 -3 -17 -5 -10 -3 7 -11 10 -19 7 -10 -4
-12 1 -9 18 2 13 2 17 -2 10 -3 -6 -10 -10 -15 -6 -16 9 1 24 27 24 23 0 29 9
25 39 -2 7 2 10 8 7 5 -4 10 -14 11 -24z m815 -124 c-1 -15 4 -29 12 -32 7 -3
13 -10 13 -16 0 -6 -9 -2 -21 9 -13 12 -18 24 -13 32 5 9 2 11 -9 6 -12 -4
-14 -2 -10 10 5 13 2 15 -11 10 -9 -4 -15 -3 -12 2 3 5 16 8 29 7 19 -1 23 -6
22 -28z m-1390 -168 c3 -5 -1 -10 -10 -10 -9 0 -13 5 -10 10 3 6 8 10 10 10 2
0 7 -4 10 -10z m865 -7 c-1 -49 -63 -61 -67 -13 -2 23 -2 23 6 5 8 -17 10 -17
10 -3 1 12 6 15 18 11 11 -4 14 -3 9 5 -4 7 -1 12 8 12 9 0 16 -8 16 -17z
m-800 -73 c0 -27 -19 -35 -38 -17 -12 13 -13 19 -3 31 16 19 41 10 41 -14z
m2714 -8 c-5 -4 -15 -18 -21 -32 -11 -24 -12 -24 -12 -3 -1 23 27 58 37 48 4
-3 2 -9 -4 -13z m-2509 -46 c8 -7 11 -16 8 -19 -5 -6 -33 17 -33 27 0 10 11 7
25 -8z m-191 -21 c-4 -8 -8 -15 -10 -15 -2 0 -4 7 -4 15 0 8 4 15 10 15 5 0 7
-7 4 -15z m226 -5 c0 -5 -5 -10 -11 -10 -5 0 -7 5 -4 10 3 6 8 10 11 10 2 0 4
-4 4 -10z m2440 6 c0 -3 -4 -8 -10 -11 -5 -3 -10 -1 -10 4 0 6 5 11 10 11 6 0
10 -2 10 -4z m-2665 -56 c4 -6 11 -8 16 -5 5 4 9 -3 9 -14 0 -11 8 -26 18 -33
10 -7 47 -37 81 -67 99 -88 107 -152 24 -211 -26 -19 -68 -53 -93 -76 -44 -43
-70 -52 -35 -14 18 20 18 21 -1 14 -10 -4 -25 -12 -32 -17 -9 -7 -11 -6 -7 4
3 9 -6 21 -25 32 -38 23 -41 61 -5 79 24 13 24 13 -15 14 -26 1 -41 -4 -45
-14 -4 -11 -2 -12 8 -4 10 8 12 4 12 -23 -1 -19 -4 -37 -7 -40 -8 -9 -79 66
-72 76 3 5 2 15 -3 22 -4 6 -8 17 -9 22 0 6 -2 16 -2 23 -4 25 -22 11 -22 -17
l0 -29 -42 22 c-45 24 -58 55 -33 80 8 8 15 20 15 26 0 7 8 9 20 5 12 -4 19
-2 18 3 -4 14 56 64 61 51 2 -7 6 -7 12 2 8 12 11 11 19 -1 7 -11 10 -7 10 18
0 31 12 39 51 34 4 -1 4 8 1 20 -4 16 -2 19 8 13 10 -6 12 -4 7 8 -4 12 -2 14
10 10 11 -5 14 -3 8 6 -6 10 -3 11 13 2 12 -6 24 -16 27 -21z m1467 -21 c28
-27 48 -53 44 -56 -3 -3 -12 -1 -19 5 -8 7 -18 8 -23 4 -5 -4 -6 -3 -2 1 3 5
-9 25 -28 45 -32 34 -42 52 -28 52 4 0 29 -23 56 -51z m1292 12 c24 -20 20
-28 -13 -23 -16 2 -38 -1 -49 -7 -11 -6 -28 -8 -37 -5 -14 6 -14 9 5 29 24 25
67 28 94 6z m-365 -61 c23 -27 40 -50 37 -50 -7 0 -86 84 -86 93 0 13 6 7 49
-43z m-2664 -30 c3 -5 1 -10 -4 -10 -6 0 -11 5 -11 10 0 6 2 10 4 10 3 0 8 -4
11 -10z m995 -10 c0 -5 -7 -10 -16 -10 -8 0 -12 5 -9 10 3 6 10 10 16 10 5 0
9 -4 9 -10z m1467 -22 c-3 -7 -5 -2 -5 12 0 14 2 19 5 13 2 -7 2 -19 0 -25z
m-1524 2 c3 -11 1 -18 -4 -14 -5 3 -9 12 -9 20 0 20 7 17 13 -6z m2121 -6 c3
-8 2 -12 -4 -9 -6 3 -10 10 -10 16 0 14 7 11 14 -7z m-2564 -3 c0 -13 -28 -22
-35 -11 -3 4 1 11 7 13 20 8 28 8 28 -2z m475 -91 l30 -5 -25 -18 c-22 -15
-23 -17 -5 -18 16 -1 15 -2 -5 -8 -29 -8 -38 9 -38 69 0 30 1 32 7 10 5 -17
16 -26 36 -30z m-77 5 c-2 -2 -15 -1 -28 2 l-25 7 25 6 c22 6 39 -4 28 -15z
m19 -27 c-3 -8 -6 -5 -6 6 -1 11 2 17 5 13 3 -3 4 -12 1 -19z m1403 -62 c0 -3
-4 -8 -10 -11 -5 -3 -10 -1 -10 4 0 6 5 11 10 11 6 0 10 -2 10 -4z m-386 -82
c3 -8 -12 -11 -55 -8 -33 2 -59 -1 -59 -6 0 -5 8 -7 18 -3 9 3 14 3 10 -1 -4
-5 -28 -9 -54 -11 -42 -2 -45 -1 -29 11 10 7 38 16 64 19 25 4 51 8 56 10 20
6 45 0 49 -11z m-14 -65 c0 -5 5 -7 11 -3 8 4 8 0 0 -15 -13 -24 -17 -25 -27
-9 -5 7 -3 8 6 3 8 -5 11 -3 8 6 -2 7 -15 16 -29 20 -24 7 -24 7 4 8 15 1 27
-4 27 -10z m51 -16 c13 -16 12 -17 -3 -4 -17 13 -22 21 -14 21 2 0 10 -8 17
-17z m-164 1 c-3 -3 -12 -4 -19 -1 -8 3 -5 6 6 6 11 1 17 -2 13 -5z m142 -48
c10 -11 7 -14 -14 -12 -27 1 -33 11 -12 19 6 3 13 6 13 6 1 1 7 -5 13 -13z
m-289 -38 c0 -10 -1 -18 -2 -19 -2 0 -23 -2 -48 -5 l-45 -5 39 37 c39 37 55
35 56 -8z m494 -117 c43 -43 74 -81 68 -85 -15 -9 -118 -9 -202 1 -72 8 -75 9
-72 33 9 73 8 75 -20 78 -14 2 -65 -6 -113 -17 l-87 -21 -17 22 c-18 22 -45
25 -120 14 -20 -3 -49 0 -66 8 l-30 13 49 8 c27 4 81 5 120 3 39 -3 112 0 161
7 50 7 126 13 170 14 l80 1 79 -79z"/>
<path d="M3360 3030 c0 -11 -27 -72 -60 -135 -43 -84 -55 -115 -44 -115 9 0
35 -12 60 -26 l44 -26 0 22 c0 20 -2 21 -17 9 -16 -12 -17 -12 -6 2 7 9 9 20
5 24 -4 5 -1 5 6 1 13 -8 13 -15 18 152 2 61 1 112 -1 112 -3 0 -5 -9 -5 -20z
m-3 -152 c-3 -8 -6 -5 -6 6 -1 11 2 17 5 13 3 -3 4 -12 1 -19z"/>
<path d="M3123 2763 c-8 -33 0 -37 37 -18 37 19 35 40 -4 40 -20 1 -28 -5 -33
-22z"/>
<path d="M2970 2550 c-13 -9 -13 -10 0 -10 8 0 22 5 30 10 13 9 13 10 0 10 -8
0 -22 -5 -30 -10z"/>
<path d="M3180 2530 c0 -5 -9 -10 -19 -10 -11 0 -22 -4 -25 -9 -3 -5 -16 -7
-29 -4 -21 6 -21 5 3 -14 35 -28 69 -44 192 -92 58 -23 112 -49 119 -57 7 -9
23 -20 35 -24 12 -5 39 -34 60 -65 36 -55 38 -56 49 -35 10 18 9 30 -7 63 -28
57 -56 82 -113 102 -27 10 -59 26 -70 35 -11 10 -54 37 -95 60 -41 24 -76 47
-78 52 -5 11 -22 10 -22 -2z"/>
<path d="M2998 2266 c-26 -19 -23 -23 25 -29 51 -8 183 -50 255 -83 29 -13 55
-24 58 -24 2 0 27 -15 54 -34 65 -45 109 -55 127 -30 12 16 10 20 -9 31 -13 7
-17 12 -10 13 9 0 10 4 1 19 -12 19 -97 50 -140 52 -31 1 -101 27 -75 28 11 1
16 4 13 7 -6 7 -31 11 -92 18 -16 2 -55 11 -85 19 -90 25 -104 26 -122 13z"/>
<path d="M3078 2073 c7 -3 16 -2 19 1 4 3 -2 6 -13 5 -11 0 -14 -3 -6 -6z"/>
<path d="M3110 2070 c0 -5 7 -7 15 -4 8 4 15 8 15 10 0 2 -7 4 -15 4 -8 0 -15
-4 -15 -10z"/>
<path d="M3240 2025 c0 -8 5 -15 10 -15 12 0 9 -22 -5 -32 -5 -4 0 -6 12 -5
31 2 36 24 13 47 -24 24 -30 25 -30 5z"/>
<path d="M3310 1897 c0 -32 15 -51 35 -43 16 6 45 -14 45 -32 0 -5 12 -18 27
-28 l28 -17 -19 28 c-10 16 -29 38 -42 50 -13 12 -24 27 -24 32 0 5 -11 15
-25 21 -23 10 -25 9 -25 -11z"/>
<path d="M2741 2983 c1 -22 2 -23 6 -8 3 11 10 23 17 27 7 5 5 8 -6 8 -13 0
-18 -7 -17 -27z"/>
<path d="M2821 2984 c-1 -6 6 -17 14 -24 12 -10 15 -9 15 4 0 10 -4 15 -9 12
-5 -4 -12 0 -14 6 -4 8 -6 9 -6 2z"/>
<path d="M2330 1086 c0 -2 7 -6 15 -10 8 -3 15 -1 15 4 0 6 -7 10 -15 10 -8 0
-15 -2 -15 -4z"/>
<path d="M2251 944 c5 -15 7 -36 3 -48 -5 -16 -3 -18 6 -10 13 13 4 84 -11 84
-5 0 -4 -12 2 -26z"/>
<path d="M2191 898 c5 -10 11 -18 12 -18 2 0 3 8 4 18 1 10 -5 19 -12 19 -10
0 -11 -5 -4 -19z"/>
<path d="M2254 759 c-3 -6 -2 -15 3 -20 5 -5 9 -1 9 11 0 23 -2 24 -12 9z"/>
<path d="M2348 713 c7 -3 16 -2 19 1 4 3 -2 6 -13 5 -11 0 -14 -3 -6 -6z"/>
<path d="M3527 5118 c21 -10 22 -12 5 -25 -9 -8 -11 -12 -4 -8 7 4 29 -3 50
-15 l37 -22 -28 26 c-15 14 -24 26 -20 26 4 1 -3 7 -17 15 -14 8 -29 14 -35
14 -5 0 0 -5 12 -11z"/>
<path d="M3420 5070 c0 -10 6 -11 60 -14 34 -1 40 9 10 17 -10 3 -21 0 -22 -5
-3 -7 -11 -7 -26 1 -14 8 -22 8 -22 1z"/>
<path d="M2520 4590 c0 -5 7 -10 15 -10 8 0 15 5 15 10 0 6 -7 10 -15 10 -8 0
-15 -4 -15 -10z"/>
<path d="M3591 4534 c0 -11 3 -14 6 -6 3 7 2 16 -1 19 -3 4 -6 -2 -5 -13z"/>
<path d="M2719 4313 c-6 -7 -19 -13 -28 -13 -14 0 -14 -2 -1 -10 8 -5 10 -10
4 -10 -6 0 -11 -7 -11 -16 0 -13 9 -15 56 -9 69 9 290 8 340 -1 20 -4 51 -13
70 -21 18 -8 35 -12 38 -10 6 7 -45 57 -58 57 -6 0 -8 4 -5 8 3 5 -9 6 -26 4
-18 -3 -33 0 -38 8 -5 8 -36 14 -81 15 -41 2 -84 5 -96 8 -13 3 -23 2 -23 -2
0 -4 -16 -7 -35 -6 -19 0 -35 -4 -35 -10 0 -5 -4 -4 -9 4 -12 19 -48 21 -62 4z"/>
<path d="M3088 4303 c7 -3 16 -2 19 1 4 3 -2 6 -13 5 -11 0 -14 -3 -6 -6z"/>
<path d="M2630 4260 c8 -5 20 -10 25 -10 6 0 3 5 -5 10 -8 5 -19 10 -25 10 -5
0 -3 -5 5 -10z"/>
<path d="M3657 4076 c-16 -13 -37 -30 -48 -38 -13 -9 -17 -20 -13 -35 l6 -23
26 20 c33 27 48 13 56 -53 11 -87 22 -84 35 8 9 69 9 91 -1 112 -17 36 -28 37
-61 9z"/>
<path d="M2736 4005 c4 -8 8 -15 10 -15 2 0 4 7 4 15 0 8 -4 15 -10 15 -5 0
-7 -7 -4 -15z"/>
<path d="M3548 3969 c-18 -10 -25 -39 -10 -39 13 0 28 -86 21 -114 -7 -26 -6
-27 25 -23 42 6 76 24 76 41 0 17 -90 106 -107 106 -7 0 -13 5 -13 10 0 6 6
10 14 10 8 0 18 5 21 10 8 13 -5 12 -27 -1z"/>
<path d="M2730 3961 c0 -6 4 -13 10 -16 6 -3 7 1 4 9 -7 18 -14 21 -14 7z"/>
<path d="M3190 3904 c0 -5 -26 -35 -57 -67 -31 -31 -51 -57 -45 -57 7 0 12 5
12 10 0 6 7 10 15 10 8 0 15 4 15 9 0 5 9 13 20 16 11 4 18 11 15 16 -4 5 2 9
12 10 11 0 13 2 5 6 -10 4 -9 9 4 24 9 11 14 22 11 26 -4 3 -7 2 -7 -3z"/>
<path d="M2240 3770 c0 -12 8 -12 35 0 18 8 17 9 -7 9 -16 1 -28 -3 -28 -9z"/>
<path d="M2864 3749 c-3 -6 2 -18 12 -27 17 -16 17 -16 5 0 -7 9 -10 22 -6 28
3 5 4 10 1 10 -3 0 -8 -5 -12 -11z"/>
<path d="M2208 3703 c7 -3 16 -2 19 1 4 3 -2 6 -13 5 -11 0 -14 -3 -6 -6z"/>
<path d="M3127 3344 c-11 -14 -16 -28 -13 -31 3 -4 6 -1 6 6 0 7 6 11 13 8 7
-3 13 5 13 19 2 29 3 29 -19 -2z"/>
<path d="M3840 3338 c1 -24 27 -49 44 -42 23 9 20 17 -14 37 -22 14 -30 15
-30 5z"/>
<path d="M3938 3314 c12 -9 22 -22 22 -30 0 -7 16 -18 34 -25 19 -7 33 -16 30
-21 -6 -9 41 -22 55 -14 5 3 11 1 13 -5 2 -7 19 -13 38 -15 19 -2 44 -8 55
-13 11 -5 37 -12 57 -16 21 -3 44 -12 51 -20 8 -7 18 -10 23 -5 5 4 18 4 29
-1 18 -9 18 -9 -3 -5 -12 2 -19 0 -16 -5 3 -6 13 -9 22 -8 10 2 34 -5 56 -14
21 -9 44 -17 51 -17 6 0 15 -3 19 -7 6 -7 90 -31 109 -33 4 0 7 7 7 15 0 8 -8
15 -18 15 -9 0 -112 32 -227 71 -116 39 -217 72 -225 73 -8 0 -17 3 -20 6 -6
6 -138 72 -165 82 -17 6 -17 5 3 -8z"/>
<path d="M4268 3103 c7 -3 16 -2 19 1 4 3 -2 6 -13 5 -11 0 -14 -3 -6 -6z"/>
<path d="M4260 3080 c0 -5 7 -10 15 -10 8 0 15 5 15 10 0 6 -7 10 -15 10 -8 0
-15 -4 -15 -10z"/>
<path d="M4382 1190 c0 -19 2 -27 5 -17 2 9 2 25 0 35 -3 9 -5 1 -5 -18z"/>
<path d="M4417 1169 c7 -7 15 -10 18 -7 3 3 -2 9 -12 12 -14 6 -15 5 -6 -5z"/>
<path d="M4477 1153 c-12 -12 -7 -22 8 -17 8 4 15 10 15 15 0 11 -14 12 -23 2z"/>
<path d="M4394 1125 c-4 -8 -4 -22 0 -30 6 -17 26 -20 26 -4 0 5 -5 7 -11 3
-8 -5 -10 1 -7 20 6 28 1 35 -8 11z"/>
<path d="M4430 1130 c0 -5 5 -10 10 -10 6 0 10 -7 10 -15 0 -16 15 -21 23 -7
3 4 -6 15 -19 25 -13 10 -24 13 -24 7z"/>
<path d="M4510 1080 c0 -5 5 -10 10 -10 6 0 10 5 10 10 0 6 -4 10 -10 10 -5 0
-10 -4 -10 -10z"/>
<path d="M4550 1076 c0 -9 5 -16 10 -16 6 0 10 4 10 9 0 6 -4 13 -10 16 -5 3
-10 -1 -10 -9z"/>
<path d="M4400 1060 c0 -5 5 -10 11 -10 5 0 7 5 4 10 -3 6 -8 10 -11 10 -2 0
-4 -4 -4 -10z"/>
<path d="M4820 924 c0 -13 18 -39 24 -34 2 3 -2 14 -10 24 -8 11 -14 16 -14
10z"/>
<path d="M4930 825 c0 -8 6 -15 13 -15 7 0 8 -3 2 -8 -5 -4 -11 -24 -11 -44
-2 -33 0 -36 17 -28 10 6 25 20 34 33 15 21 14 23 -16 49 -37 32 -39 33 -39
13z m56 -37 c5 -8 2 -9 -9 -5 -10 4 -17 1 -17 -5 0 -6 -3 -9 -6 -5 -7 7 4 27
16 27 5 0 12 -5 16 -12z"/>
</g>
</svg>
